<svg width="73" height="72" viewBox="0 0 73 72" fill="none" xmlns="http://www.w3.org/2000/svg">
<ellipse cx="46.6665" cy="12" rx="4" ry="4" transform="rotate(-90 46.6665 12)" fill="url(#paint0_radial_1_46939)"/>
<ellipse cx="36.6665" cy="36" rx="16" ry="16" transform="rotate(-90 36.6665 36)" fill="url(#paint1_radial_1_46939)"/>
<ellipse cx="24.6665" cy="60" rx="4" ry="4" transform="rotate(-90 24.6665 60)" fill="url(#paint2_radial_1_46939)"/>
<path d="M25.0994 59C22.0663 57.737 19.3103 55.8858 16.9888 53.552C14.6674 51.2183 12.8259 48.4478 11.5695 45.3986C10.3131 42.3495 9.6665 39.0814 9.6665 35.781C9.6665 32.4806 10.3131 29.2125 11.5695 26.1633C12.8259 23.1142 14.6674 20.3436 16.9888 18.0099C19.3103 15.6762 22.0663 13.825 25.0994 12.562C28.1326 11.299 31.3835 10.6489 34.6665 10.6489M34.6665 10.6489L27.6665 4M34.6665 10.6489L27.0578 18.0099" stroke="url(#paint3_linear_1_46939)" stroke-width="3"/>
<path d="M48.2336 13C51.2667 14.263 54.0227 16.1142 56.3442 18.448C58.6656 20.7817 60.5071 23.5522 61.7635 26.6014C63.0199 29.6505 63.6665 32.9186 63.6665 36.219C63.6665 39.5194 63.0199 42.7875 61.7635 45.8367C60.5071 48.8858 58.6656 51.6564 56.3442 53.9901C54.0227 56.3238 51.2667 58.175 48.2336 59.438C45.2005 60.701 41.9496 61.3511 38.6665 61.3511M38.6665 61.3511L45.6665 68M38.6665 61.3511L46.2752 53.9901" stroke="url(#paint4_linear_1_46939)" stroke-width="3"/>
<defs>
<radialGradient id="paint0_radial_1_46939" cx="0" cy="0" r="1" gradientUnits="userSpaceOnUse" gradientTransform="translate(45.5896 10.7692) rotate(71.5651) scale(6.81106)">
<stop offset="0.213542" stop-color="#1650E4"/>
<stop offset="1" stop-color="#3DDBE7"/>
</radialGradient>
<radialGradient id="paint1_radial_1_46939" cx="0" cy="0" r="1" gradientUnits="userSpaceOnUse" gradientTransform="translate(34.205 28) rotate(76.8275) scale(29.7047 29.7047)">
<stop offset="0.170198" stop-color="#B5A6EF"/>
<stop offset="0.724405" stop-color="#475467"/>
</radialGradient>
<radialGradient id="paint2_radial_1_46939" cx="0" cy="0" r="1" gradientUnits="userSpaceOnUse" gradientTransform="translate(23.5896 58.7692) rotate(71.5651) scale(6.81106)">
<stop offset="0.213542" stop-color="#1650E4"/>
<stop offset="1" stop-color="#3DDBE7"/>
</radialGradient>
<linearGradient id="paint3_linear_1_46939" x1="36.297" y1="32.5029" x2="34.6493" y2="66.9221" gradientUnits="userSpaceOnUse">
<stop stop-color="#475467"/>
<stop offset="0.83366" stop-color="#475467" stop-opacity="0"/>
</linearGradient>
<linearGradient id="paint4_linear_1_46939" x1="37.036" y1="39.4971" x2="38.6837" y2="5.07791" gradientUnits="userSpaceOnUse">
<stop stop-color="#475467"/>
<stop offset="0.83366" stop-color="#475467" stop-opacity="0"/>
</linearGradient>
</defs>
</svg>
