<svg width="73" height="72" viewBox="0 0 73 72" fill="none" xmlns="http://www.w3.org/2000/svg">
<path d="M36.3335 11H25.3335C18.7061 11 13.3335 16.3726 13.3335 23V23C13.3335 29.6274 18.7061 35 25.3335 35H36.3335" stroke="#475467" stroke-width="3"/>
<path d="M24.3335 35H35.3335C41.9609 35 47.3335 29.6274 47.3335 23V23C47.3335 16.3726 41.9609 11 35.3335 11H24.3335" stroke="#475467" stroke-width="3"/>
<path d="M58.3335 11L34.3335 11" stroke="url(#paint0_linear_1_46934)" stroke-width="3"/>
<ellipse cx="63.3335" cy="11" rx="6" ry="6" transform="rotate(-90 63.3335 11)" fill="url(#paint1_radial_1_46934)"/>
<ellipse cx="30.3335" cy="23" rx="4" ry="4" transform="rotate(-90 30.3335 23)" fill="url(#paint2_radial_1_46934)"/>
<ellipse cx="40.3335" cy="48" rx="4" ry="4" transform="rotate(-90 40.3335 48)" fill="url(#paint3_radial_1_46934)"/>
<path d="M18.3335 60L36.3335 60" stroke="url(#paint4_linear_1_46934)" stroke-width="3"/>
<path d="M35.3335 35H43.8335C50.7371 35 56.3335 40.5964 56.3335 47.5V47.5C56.3335 54.4036 50.7371 60 43.8335 60H35.3335" stroke="#475467" stroke-width="3"/>
<path d="M45.3335 35H36.8335C29.9299 35 24.3335 40.5964 24.3335 47.5V47.5C24.3335 54.4036 29.9299 60 36.8335 60H45.3335" stroke="#475467" stroke-width="3"/>
<ellipse cx="8" cy="8" rx="8" ry="8" transform="matrix(-4.37114e-08 1 1 4.37114e-08 3.3335 51)" fill="url(#paint5_radial_1_46934)"/>
<defs>
<linearGradient id="paint0_linear_1_46934" x1="35.9699" y1="10.2187" x2="56.6972" y2="10.2187" gradientUnits="userSpaceOnUse">
<stop stop-color="#475467"/>
<stop offset="1" stop-color="#475467" stop-opacity="0"/>
</linearGradient>
<radialGradient id="paint1_radial_1_46934" cx="0" cy="0" r="1" gradientUnits="userSpaceOnUse" gradientTransform="translate(61.7181 9.15385) rotate(71.5651) scale(10.2166 10.2166)">
<stop offset="0.213542" stop-color="#1650E4"/>
<stop offset="1" stop-color="#3DDBE7"/>
</radialGradient>
<radialGradient id="paint2_radial_1_46934" cx="0" cy="0" r="1" gradientUnits="userSpaceOnUse" gradientTransform="translate(29.2566 21.7692) rotate(71.5651) scale(6.81106)">
<stop offset="0.213542" stop-color="#1650E4"/>
<stop offset="1" stop-color="#3DDBE7"/>
</radialGradient>
<radialGradient id="paint3_radial_1_46934" cx="0" cy="0" r="1" gradientUnits="userSpaceOnUse" gradientTransform="translate(39.2566 46.7692) rotate(71.5651) scale(6.81106)">
<stop offset="0.213542" stop-color="#1650E4"/>
<stop offset="1" stop-color="#3DDBE7"/>
</radialGradient>
<linearGradient id="paint4_linear_1_46934" x1="35.1062" y1="60.7813" x2="19.5607" y2="60.7813" gradientUnits="userSpaceOnUse">
<stop stop-color="#475467"/>
<stop offset="1" stop-color="#475467" stop-opacity="0"/>
</linearGradient>
<radialGradient id="paint5_radial_1_46934" cx="0" cy="0" r="1" gradientUnits="userSpaceOnUse" gradientTransform="translate(6.76923 4) rotate(76.8275) scale(14.8523)">
<stop offset="0.170198" stop-color="#B5A6EF"/>
<stop offset="0.724405" stop-color="#475467"/>
</radialGradient>
</defs>
</svg>
