<svg width="72" height="72" viewBox="0 0 72 72" fill="none" xmlns="http://www.w3.org/2000/svg">
<ellipse cx="36" cy="42.5" rx="26" ry="6.5" stroke="url(#paint0_linear_94_95851)" stroke-width="3"/>
<ellipse cx="36" cy="17" rx="11" ry="11" transform="rotate(-90 36 17)" fill="url(#paint1_radial_94_95851)"/>
<ellipse cx="56.5" cy="35.5" rx="5.5" ry="5.5" transform="rotate(-90 56.5 35.5)" fill="url(#paint2_radial_94_95851)"/>
<ellipse cx="15.5" cy="27.5" rx="5.5" ry="5.5" transform="rotate(-90 15.5 27.5)" fill="url(#paint3_radial_94_95851)"/>
<ellipse cx="18" cy="4.5" rx="18" ry="4.5" transform="matrix(-1 0 0 1 54 49)" stroke="url(#paint4_linear_94_95851)" stroke-width="3"/>
<ellipse cx="36" cy="61" rx="12" ry="3" stroke="url(#paint5_linear_94_95851)" stroke-width="3"/>
<ellipse cx="35.5" cy="48.5" rx="5.5" ry="5.5" transform="rotate(-90 35.5 48.5)" fill="url(#paint6_radial_94_95851)"/>
<defs>
<linearGradient id="paint0_linear_94_95851" x1="36.9482" y1="35.1522" x2="69.3193" y2="37.9696" gradientUnits="userSpaceOnUse">
<stop stop-color="#475467"/>
<stop offset="0.83366" stop-color="#475467" stop-opacity="0"/>
</linearGradient>
<radialGradient id="paint1_radial_94_95851" cx="0" cy="0" r="1" gradientUnits="userSpaceOnUse" gradientTransform="translate(33.0385 13.6154) rotate(71.5651) scale(18.7304 18.7304)">
<stop offset="0.213542" stop-color="#1650E4"/>
<stop offset="1" stop-color="#3DDBE7"/>
</radialGradient>
<radialGradient id="paint2_radial_94_95851" cx="0" cy="0" r="1" gradientUnits="userSpaceOnUse" gradientTransform="translate(55.6538 32.75) rotate(76.8275) scale(10.211 10.211)">
<stop offset="0.170198" stop-color="#B5A6EF"/>
<stop offset="0.724405" stop-color="#475467"/>
</radialGradient>
<radialGradient id="paint3_radial_94_95851" cx="0" cy="0" r="1" gradientUnits="userSpaceOnUse" gradientTransform="translate(14.6538 24.75) rotate(76.8275) scale(10.211 10.211)">
<stop offset="0.170198" stop-color="#B5A6EF"/>
<stop offset="0.724405" stop-color="#475467"/>
</radialGradient>
<linearGradient id="paint4_linear_94_95851" x1="18.6564" y1="-0.586967" x2="41.0672" y2="1.3636" gradientUnits="userSpaceOnUse">
<stop stop-color="#475467"/>
<stop offset="0.83366" stop-color="#475467" stop-opacity="0"/>
</linearGradient>
<linearGradient id="paint5_linear_94_95851" x1="36.4376" y1="57.6087" x2="51.3781" y2="58.9091" gradientUnits="userSpaceOnUse">
<stop stop-color="#475467"/>
<stop offset="0.83366" stop-color="#475467" stop-opacity="0"/>
</linearGradient>
<radialGradient id="paint6_radial_94_95851" cx="0" cy="0" r="1" gradientUnits="userSpaceOnUse" gradientTransform="translate(34.0192 46.8077) rotate(71.5651) scale(9.36521 9.36521)">
<stop offset="0.213542" stop-color="#1650E4"/>
<stop offset="1" stop-color="#3DDBE7"/>
</radialGradient>
</defs>
</svg>
