<svg width="73" height="72" viewBox="0 0 73 72" fill="none" xmlns="http://www.w3.org/2000/svg">
<ellipse cx="13" cy="13" rx="13" ry="13" transform="matrix(-4.37114e-08 1 1 4.37114e-08 40.6665 40)" fill="url(#paint0_radial_1_46732)"/>
<path d="M14.6665 22L14.6665 42" stroke="url(#paint1_linear_1_46732)" stroke-width="3"/>
<path d="M31.6665 60L31.6665 40" stroke="url(#paint2_linear_1_46732)" stroke-width="3"/>
<ellipse cx="14.6665" cy="14" rx="6" ry="6" transform="rotate(-90 14.6665 14)" fill="url(#paint3_radial_1_46732)"/>
<ellipse cx="31.6665" cy="31" rx="8" ry="8" transform="rotate(-90 31.6665 31)" fill="url(#paint4_radial_1_46732)"/>
<path d="M42.6665 14L22.6665 14" stroke="url(#paint5_linear_1_46732)" stroke-width="3"/>
<path d="M39.6665 31L59.6665 31" stroke="url(#paint6_linear_1_46732)" stroke-width="3"/>
<defs>
<radialGradient id="paint0_radial_1_46732" cx="0" cy="0" r="1" gradientUnits="userSpaceOnUse" gradientTransform="translate(11 6.5) rotate(76.8275) scale(24.135 24.135)">
<stop offset="0.170198" stop-color="#B5A6EF"/>
<stop offset="0.724405" stop-color="#475467"/>
</radialGradient>
<linearGradient id="paint1_linear_1_46732" x1="14.7347" y1="42" x2="14.7347" y2="26.375" gradientUnits="userSpaceOnUse">
<stop stop-color="#475467"/>
<stop offset="1" stop-color="#A3A3A3" stop-opacity="0"/>
</linearGradient>
<linearGradient id="paint2_linear_1_46732" x1="31.7347" y1="40" x2="31.7347" y2="55.625" gradientUnits="userSpaceOnUse">
<stop stop-color="#475467"/>
<stop offset="1" stop-color="#A3A3A3" stop-opacity="0"/>
</linearGradient>
<radialGradient id="paint3_radial_1_46732" cx="0" cy="0" r="1" gradientUnits="userSpaceOnUse" gradientTransform="translate(13.0511 12.1538) rotate(71.5651) scale(10.2166 10.2166)">
<stop offset="0.213542" stop-color="#1650E4"/>
<stop offset="1" stop-color="#3DDBE7"/>
</radialGradient>
<radialGradient id="paint4_radial_1_46732" cx="0" cy="0" r="1" gradientUnits="userSpaceOnUse" gradientTransform="translate(29.5127 28.5385) rotate(71.5651) scale(13.6221)">
<stop offset="0.213542" stop-color="#1650E4"/>
<stop offset="1" stop-color="#3DDBE7"/>
</radialGradient>
<linearGradient id="paint5_linear_1_46732" x1="22.6665" y1="13.9318" x2="38.2915" y2="13.9318" gradientUnits="userSpaceOnUse">
<stop stop-color="#475467"/>
<stop offset="1" stop-color="#A3A3A3" stop-opacity="0"/>
</linearGradient>
<linearGradient id="paint6_linear_1_46732" x1="59.6665" y1="30.9318" x2="44.0415" y2="30.9318" gradientUnits="userSpaceOnUse">
<stop stop-color="#475467"/>
<stop offset="1" stop-color="#A3A3A3" stop-opacity="0"/>
</linearGradient>
</defs>
</svg>
