<svg width="73" height="72" viewBox="0 0 73 72" fill="none" xmlns="http://www.w3.org/2000/svg">
<path d="M56.58 34.9953C48.8493 48.3853 31.7276 52.973 18.3377 45.2423C4.94773 37.5116 0.359992 20.39 8.09069 7" stroke="url(#paint0_linear_94_95866)" stroke-width="3"/>
<ellipse cx="51.3333" cy="15" rx="6" ry="6" transform="rotate(-90 51.3333 15)" fill="url(#paint1_radial_94_95866)"/>
<ellipse cx="14.3334" cy="59" rx="4" ry="4" transform="rotate(-90 14.3334 59)" fill="url(#paint2_radial_94_95866)"/>
<circle cx="55.3333" cy="59" r="9" transform="rotate(-90 55.3333 59)" fill="url(#paint3_radial_94_95866)"/>
<ellipse cx="40.3333" cy="11" rx="4" ry="4" transform="rotate(-90 40.3333 11)" fill="url(#paint4_radial_94_95866)"/>
<ellipse cx="13" cy="13" rx="13" ry="13" transform="matrix(-1 -8.74228e-08 -8.74228e-08 1 44.3333 17)" fill="url(#paint5_radial_94_95866)"/>
<defs>
<linearGradient id="paint0_linear_94_95866" x1="50.1659" y1="13.109" x2="48.5734" y2="33.7273" gradientUnits="userSpaceOnUse">
<stop stop-color="#475467" stop-opacity="0"/>
<stop offset="0.0001" stop-color="white" stop-opacity="0"/>
<stop offset="0.950219" stop-color="#475467"/>
</linearGradient>
<radialGradient id="paint1_radial_94_95866" cx="0" cy="0" r="1" gradientUnits="userSpaceOnUse" gradientTransform="translate(50.4102 12) rotate(76.8275) scale(11.1392 11.1392)">
<stop offset="0.170198" stop-color="#B5A6EF"/>
<stop offset="0.724405" stop-color="#475467"/>
</radialGradient>
<radialGradient id="paint2_radial_94_95866" cx="0" cy="0" r="1" gradientUnits="userSpaceOnUse" gradientTransform="translate(13.2565 57.7692) rotate(71.5651) scale(6.81106)">
<stop offset="0.213542" stop-color="#1650E4"/>
<stop offset="1" stop-color="#3DDBE7"/>
</radialGradient>
<radialGradient id="paint3_radial_94_95866" cx="0" cy="0" r="1" gradientUnits="userSpaceOnUse" gradientTransform="translate(52.9102 56.2308) rotate(71.5651) scale(15.3249)">
<stop offset="0.213542" stop-color="#1650E4"/>
<stop offset="1" stop-color="#3DDBE7"/>
</radialGradient>
<radialGradient id="paint4_radial_94_95866" cx="0" cy="0" r="1" gradientUnits="userSpaceOnUse" gradientTransform="translate(39.2564 9.76923) rotate(71.5651) scale(6.81106)">
<stop offset="0.213542" stop-color="#1650E4"/>
<stop offset="1" stop-color="#3DDBE7"/>
</radialGradient>
<radialGradient id="paint5_radial_94_95866" cx="0" cy="0" r="1" gradientUnits="userSpaceOnUse" gradientTransform="translate(11 6.5) rotate(76.8275) scale(24.135 24.135)">
<stop offset="0.170198" stop-color="#B5A6EF"/>
<stop offset="0.724405" stop-color="#475467"/>
</radialGradient>
</defs>
</svg>
