<svg width="724" height="358" viewBox="0 0 724 358" fill="none" xmlns="http://www.w3.org/2000/svg">
<g filter="url(#filter0_d_1_47440)">
<g clip-path="url(#clip0_1_47440)">
<g filter="url(#filter1_b_1_47440)">
<rect x="250" y="50.5247" width="901.065" height="41" fill="url(#paint0_linear_1_47440)" fill-opacity="0.65"/>
<circle cx="273.5" cy="71.0247" r="13" fill="#D0D5DD" fill-opacity="0.5"/>
<path d="M292.738 67.7519H293.984L295.884 71.058H295.962L297.862 67.7519H299.109L296.47 72.1695V75.0247H295.376V72.1695L292.738 67.7519ZM306.091 71.3883C306.091 72.1648 305.949 72.8324 305.665 73.3911C305.381 73.9475 304.991 74.376 304.497 74.6766C304.004 74.9749 303.444 75.1241 302.817 75.1241C302.187 75.1241 301.625 74.9749 301.13 74.6766C300.638 74.376 300.249 73.9463 299.965 73.3876C299.681 72.8289 299.539 72.1624 299.539 71.3883C299.539 70.6118 299.681 69.9453 299.965 69.389C300.249 68.8303 300.638 68.4018 301.13 68.1035C301.625 67.8028 302.187 67.6525 302.817 67.6525C303.444 67.6525 304.004 67.8028 304.497 68.1035C304.991 68.4018 305.381 68.8303 305.665 69.389C305.949 69.9453 306.091 70.6118 306.091 71.3883ZM305.004 71.3883C305.004 70.7964 304.909 70.2981 304.717 69.8933C304.527 69.4861 304.267 69.1783 303.936 68.97C303.606 68.7593 303.234 68.6539 302.817 68.6539C302.398 68.6539 302.024 68.7593 301.695 68.97C301.366 69.1783 301.105 69.4861 300.914 69.8933C300.724 70.2981 300.629 70.7964 300.629 71.3883C300.629 71.9802 300.724 72.4797 300.914 72.8869C301.105 73.2917 301.366 73.5995 301.695 73.8102C302.024 74.0185 302.398 74.1227 302.817 74.1227C303.234 74.1227 303.606 74.0185 303.936 73.8102C304.267 73.5995 304.527 73.2917 304.717 72.8869C304.909 72.4797 305.004 71.9802 305.004 71.3883ZM312.136 67.7519H313.237V72.5353C313.237 73.0443 313.117 73.4953 312.878 73.8883C312.639 74.2789 312.303 74.5867 311.87 74.8116C311.436 75.0341 310.929 75.1454 310.346 75.1454C309.766 75.1454 309.26 75.0341 308.826 74.8116C308.393 74.5867 308.057 74.2789 307.818 73.8883C307.579 73.4953 307.459 73.0443 307.459 72.5353V67.7519H308.556V72.4465C308.556 72.7756 308.629 73.068 308.773 73.3237C308.92 73.5793 309.127 73.7806 309.395 73.9274C309.662 74.0718 309.979 74.144 310.346 74.144C310.716 74.144 311.034 74.0718 311.301 73.9274C311.571 73.7806 311.777 73.5793 311.919 73.3237C312.064 73.068 312.136 72.7756 312.136 72.4465V67.7519ZM314.832 75.0247V67.7519H317.425C317.988 67.7519 318.456 67.849 318.827 68.0431C319.201 68.2373 319.481 68.506 319.665 68.8492C319.85 69.1901 319.942 69.5843 319.942 70.0318C319.942 70.4768 319.849 70.8686 319.662 71.2072C319.477 71.5434 319.198 71.805 318.824 71.992C318.452 72.179 317.984 72.2725 317.421 72.2725H315.457V71.3279H317.322C317.677 71.3279 317.965 71.277 318.188 71.1752C318.413 71.0734 318.577 70.9255 318.682 70.7313C318.786 70.5372 318.838 70.304 318.838 70.0318C318.838 69.7571 318.785 69.5192 318.678 69.318C318.574 69.1168 318.409 68.9629 318.184 68.8563C317.962 68.7474 317.67 68.693 317.307 68.693H315.93V75.0247H314.832ZM318.422 71.7434L320.219 75.0247H318.969L317.208 71.7434H318.422ZM323.924 75.0247V67.7519H326.587C327.103 67.7519 327.531 67.8372 327.869 68.0076C328.208 68.1757 328.461 68.4042 328.629 68.693C328.797 68.9794 328.881 69.3026 328.881 69.6624C328.881 69.9655 328.826 70.2212 328.714 70.4295C328.603 70.6355 328.454 70.8012 328.267 70.9266C328.082 71.0498 327.879 71.1397 327.656 71.1965V71.2676C327.898 71.2794 328.133 71.3575 328.363 71.5019C328.595 71.644 328.787 71.8464 328.938 72.1092C329.09 72.372 329.165 72.6916 329.165 73.068C329.165 73.4397 329.078 73.7735 328.903 74.0694C328.73 74.363 328.462 74.5962 328.1 74.769C327.738 74.9394 327.275 75.0247 326.712 75.0247H323.924ZM325.021 74.0836H326.605C327.131 74.0836 327.507 73.9818 327.734 73.7782C327.962 73.5746 328.075 73.3201 328.075 73.0147C328.075 72.7851 328.017 72.5744 327.901 72.3826C327.785 72.1909 327.62 72.0382 327.404 71.9245C327.191 71.8109 326.938 71.7541 326.644 71.7541H325.021V74.0836ZM325.021 70.8982H326.491C326.738 70.8982 326.959 70.8509 327.156 70.7562C327.354 70.6615 327.512 70.5289 327.628 70.3585C327.746 70.1856 327.805 69.982 327.805 69.7477C327.805 69.447 327.7 69.1949 327.489 68.9913C327.279 68.7877 326.955 68.6859 326.52 68.6859H325.021V70.8982ZM330.467 75.0247V67.7519H333.059C333.623 67.7519 334.09 67.849 334.462 68.0431C334.836 68.2373 335.115 68.506 335.3 68.8492C335.485 69.1901 335.577 69.5843 335.577 70.0318C335.577 70.4768 335.484 70.8686 335.297 71.2072C335.112 71.5434 334.833 71.805 334.458 71.992C334.087 72.179 333.619 72.2725 333.056 72.2725H331.092V71.3279H332.956C333.311 71.3279 333.6 71.277 333.823 71.1752C334.048 71.0734 334.212 70.9255 334.316 70.7313C334.421 70.5372 334.473 70.304 334.473 70.0318C334.473 69.7571 334.419 69.5192 334.313 69.318C334.209 69.1168 334.044 68.9629 333.819 68.8563C333.597 68.7474 333.304 68.693 332.942 68.693H331.564V75.0247H330.467ZM334.057 71.7434L335.854 75.0247H334.604L332.843 71.7434H334.057ZM337.527 75.0247H336.362L338.979 67.7519H340.247L342.864 75.0247H341.699L339.643 69.073H339.586L337.527 75.0247ZM337.722 72.1766H341.5V73.0999H337.722V72.1766ZM349.784 67.7519V75.0247H348.776L345.079 69.6909H345.012V75.0247H343.914V67.7519H344.93L348.63 73.0928H348.698V67.7519H349.784ZM353.739 75.0247H351.385V67.7519H353.814C354.527 67.7519 355.138 67.8975 355.65 68.1887C356.161 68.4775 356.553 68.893 356.825 69.4352C357.1 69.9749 357.237 70.6224 357.237 71.3776C357.237 72.1352 357.099 72.7863 356.822 73.3308C356.547 73.8753 356.149 74.2943 355.629 74.5879C355.108 74.8791 354.478 75.0247 353.739 75.0247ZM352.482 74.0659H353.679C354.233 74.0659 354.693 73.9617 355.06 73.7534C355.427 73.5427 355.702 73.2384 355.884 72.8407C356.067 72.4406 356.158 71.9529 356.158 71.3776C356.158 70.8071 356.067 70.323 355.884 69.9252C355.704 69.5275 355.436 69.2257 355.078 69.0197C354.721 68.8137 354.277 68.7107 353.746 68.7107H352.482V74.0659Z" fill="white" fill-opacity="0.75"/>
<path d="M368.25 50.5247V91.5247H369.75V50.5247H368.25Z" fill="#E1E8ED" fill-opacity="0.25" mask="url(#path-4-outside-1_1_47440)"/>
<rect x="387.75" y="64.4056" width="13.238" height="13.238" rx="6.619" fill="#D0D5DD" fill-opacity="0.25"/>
<path d="M418.238 50.5247V91.5247H419.738V50.5247H418.238Z" fill="#E1E8ED" fill-opacity="0.25" mask="url(#path-8-outside-2_1_47440)"/>
<mask id="path-11-outside-3_1_47440" maskUnits="userSpaceOnUse" x="419.738" y="50.5247" width="632" height="41" fill="black">
<rect fill="white" x="419.738" y="50.5247" width="632" height="41"/>
<path d="M419.738 50.5247H1050.34V91.5247H419.738V50.5247Z"/>
</mask>
<path d="M419.738 50.5247H1050.34V91.5247H419.738V50.5247Z" fill="#1D2533" fill-opacity="0.25"/>
<rect x="437.738" y="65.0247" width="52.3883" height="12" rx="6" fill="#D0D5DD" fill-opacity="0.25"/>
<rect x="512.626" y="65.0247" width="34.7318" height="12" rx="6" fill="#D0D5DD" fill-opacity="0.25"/>
<rect x="569.858" y="65.0247" width="108.292" height="12" rx="6" fill="#D0D5DD" fill-opacity="0.25"/>
<rect x="700.65" y="65.0247" width="32.908" height="12" rx="6" fill="#D0D5DD" fill-opacity="0.25"/>
<path d="M1049.59 50.5247V91.5247H1051.09V50.5247H1049.59Z" fill="#E1E8ED" fill-opacity="0.25" mask="url(#path-11-outside-3_1_47440)"/>
</g>
<mask id="path-17-inside-4_1_47440" fill="white">
<path d="M250 91.5247H926.193V115.712H250V91.5247Z"/>
</mask>
<path d="M250 91.5247H926.193V115.712H250V91.5247Z" fill="#1D2939"/>
<rect x="259" y="97.7122" width="98.3531" height="11.25" rx="2.25" fill="#344054"/>
<rect x="366.916" y="97.7122" width="107.438" height="11.25" rx="2.25" fill="#344054"/>
<rect x="483.916" y="97.7122" width="47.4694" height="11.25" rx="2.25" fill="#344054"/>
<rect x="540.947" y="97.7122" width="70.8075" height="11.25" rx="2.25" fill="#344054"/>
<path d="M926.193 115.15H250V116.275H926.193V115.15Z" fill="#344054" mask="url(#path-17-inside-4_1_47440)"/>
<mask id="path-23-inside-5_1_47440" fill="white">
<path d="M250 115.712H397.656V154.525H250V115.712Z"/>
</mask>
<path d="M250 115.712H397.656V154.525H250V115.712Z" fill="#344054"/>
<rect x="256.328" y="122.462" width="25.3125" height="25.3125" rx="1.6875" fill="#667085"/>
<rect x="288.391" y="127.799" width="65.1313" height="6.75" rx="3.375" fill="#667085"/>
<rect x="288.391" y="137.924" width="24.3038" height="4.51381" rx="2.25691" fill="#667085"/>
<path d="M397.656 154.103H250V154.947H397.656V154.103Z" fill="#1D2939" mask="url(#path-23-inside-5_1_47440)"/>
<mask id="path-28-inside-6_1_47440" fill="white">
<path d="M250 154.525H397.656V193.337H250V154.525Z"/>
</mask>
<path d="M250 154.525H397.656V193.337H250V154.525Z" fill="#344054"/>
<rect x="256.328" y="161.275" width="25.3125" height="25.3125" rx="1.6875" fill="#667085"/>
<rect x="288.391" y="166.612" width="65.1313" height="6.75" rx="3.375" fill="#667085"/>
<rect x="288.391" y="176.737" width="24.3038" height="4.51381" rx="2.25691" fill="#667085"/>
<path d="M397.656 192.915H250V193.759H397.656V192.915Z" fill="#1D2939" mask="url(#path-28-inside-6_1_47440)"/>
<mask id="path-33-inside-7_1_47440" fill="white">
<path d="M250 193.337H397.656V232.15H250V193.337Z"/>
</mask>
<path d="M250 193.337H397.656V232.15H250V193.337Z" fill="#344054"/>
<rect x="256.328" y="200.087" width="25.3125" height="25.3125" rx="1.6875" fill="#667085"/>
<rect x="288.391" y="205.424" width="65.1313" height="6.75" rx="3.375" fill="#667085"/>
<rect x="288.391" y="215.549" width="24.3038" height="4.51381" rx="2.25691" fill="#667085"/>
<path d="M397.656 231.728H250V232.572H397.656V231.728Z" fill="#1D2939" mask="url(#path-33-inside-7_1_47440)"/>
<mask id="path-38-inside-8_1_47440" fill="white">
<path d="M250 232.15H397.656V270.962H250V232.15Z"/>
</mask>
<path d="M250 232.15H397.656V270.962H250V232.15Z" fill="#344054"/>
<rect x="256.328" y="238.9" width="25.3125" height="25.3125" rx="1.6875" fill="#667085"/>
<rect x="288.391" y="244.237" width="65.1313" height="6.75" rx="3.375" fill="#667085"/>
<rect x="288.391" y="254.362" width="24.3038" height="4.51381" rx="2.25691" fill="#667085"/>
<path d="M397.656 270.54H250V271.384H397.656V270.54Z" fill="#1D2939" mask="url(#path-38-inside-8_1_47440)"/>
<mask id="path-43-inside-9_1_47440" fill="white">
<path d="M250 270.962H397.656V309.775H250V270.962Z"/>
</mask>
<path d="M250 270.962H397.656V309.775H250V270.962Z" fill="#344054"/>
<rect x="256.328" y="277.712" width="25.3125" height="25.3125" rx="1.6875" fill="#667085"/>
<rect x="288.391" y="283.049" width="65.1313" height="6.75" rx="3.375" fill="#667085"/>
<rect x="288.391" y="293.174" width="24.3038" height="4.51381" rx="2.25691" fill="#667085"/>
<path d="M397.656 309.353H250V310.197H397.656V309.353Z" fill="#1D2939" mask="url(#path-43-inside-9_1_47440)"/>
<mask id="path-48-inside-10_1_47440" fill="white">
<path d="M250 309.775H397.656V348.587H250V309.775Z"/>
</mask>
<path d="M250 309.775H397.656V348.587H250V309.775Z" fill="#344054"/>
<rect x="256.328" y="316.525" width="25.3125" height="25.3125" rx="1.6875" fill="#667085"/>
<rect x="288.391" y="321.862" width="65.1313" height="6.75" rx="3.375" fill="#667085"/>
<rect x="288.391" y="331.987" width="24.3038" height="4.51381" rx="2.25691" fill="#667085"/>
<path d="M397.656 348.165H250V349.009H397.656V348.165Z" fill="#1D2939" mask="url(#path-48-inside-10_1_47440)"/>
<mask id="path-53-inside-11_1_47440" fill="white">
<path d="M250 348.587H397.656V387.4H250V348.587Z"/>
</mask>
<path d="M250 348.587H397.656V387.4H250V348.587Z" fill="#344054"/>
<rect x="256.328" y="355.337" width="25.3125" height="25.3125" rx="1.6875" fill="#667085"/>
<path d="M397.656 386.978H250V387.822H397.656V386.978Z" fill="#1D2939" mask="url(#path-53-inside-11_1_47440)"/>
<rect width="677.109" height="555.609" transform="translate(397.656 115.712)" fill="#F3F3F3"/>
<path d="M397.866 154.525V115.923H978.788V193.126H397.866V154.525Z" fill="#1D2939" stroke="#1D2939" stroke-width="0.421875"/>
<g clip-path="url(#clip1_1_47440)">
<path d="M600.59 210.709H430.971C429.733 210.709 428.729 211.713 428.729 212.952V363.236C428.729 364.475 429.733 365.479 430.971 365.479H600.59C601.828 365.479 602.832 364.475 602.832 363.236V212.952C602.832 211.713 601.828 210.709 600.59 210.709Z" fill="#FEFEFE"/>
<path d="M428.729 226.784H602.832" stroke="#E5E5E5" stroke-width="0.421875"/>
<path d="M495.606 216.691H437.322C436.29 216.691 435.454 217.528 435.454 218.56C435.454 219.592 436.29 220.429 437.322 220.429H495.606C496.637 220.429 497.474 219.592 497.474 218.56C497.474 217.528 496.637 216.691 495.606 216.691Z" fill="#D0D5DD"/>
<path d="M442.179 238.747C442.179 237.715 441.343 236.878 440.311 236.878C439.28 236.878 438.443 237.715 438.443 238.747C438.443 239.779 439.28 240.616 440.311 240.616C441.343 240.616 442.179 239.779 442.179 238.747Z" fill="#D0D5DD"/>
<path d="M530.725 236.878H448.53C447.498 236.878 446.662 237.715 446.662 238.747C446.662 239.779 447.498 240.616 448.53 240.616H530.725C531.756 240.616 532.593 239.779 532.593 238.747C532.593 237.715 531.756 236.878 530.725 236.878Z" fill="#D0D5DD"/>
<path d="M442.179 252.953C442.179 251.921 441.343 251.084 440.311 251.084C439.28 251.084 438.443 251.921 438.443 252.953C438.443 253.986 439.28 254.822 440.311 254.822C441.343 254.822 442.179 253.986 442.179 252.953Z" fill="#D0D5DD"/>
<path d="M541.186 251.084H448.53C447.498 251.084 446.662 251.921 446.662 252.953C446.662 253.986 447.498 254.822 448.53 254.822H541.186C542.218 254.822 543.054 253.986 543.054 252.953C543.054 251.921 542.218 251.084 541.186 251.084Z" fill="#D0D5DD"/>
<path d="M442.179 267.159C442.179 266.127 441.343 265.29 440.311 265.29C439.28 265.29 438.443 266.127 438.443 267.159C438.443 268.192 439.28 269.028 440.311 269.028C441.343 269.028 442.179 268.192 442.179 267.159Z" fill="#D0D5DD"/>
<path d="M520.264 265.29H448.53C447.498 265.29 446.662 266.127 446.662 267.159C446.662 268.192 447.498 269.028 448.53 269.028H520.264C521.295 269.028 522.132 268.192 522.132 267.159C522.132 266.127 521.295 265.29 520.264 265.29Z" fill="#D0D5DD"/>
<path d="M442.179 281.365C442.179 280.332 441.343 279.495 440.311 279.495C439.28 279.495 438.443 280.332 438.443 281.365C438.443 282.397 439.28 283.234 440.311 283.234C441.343 283.234 442.179 282.397 442.179 281.365Z" fill="#D0D5DD"/>
<path d="M532.219 279.495H448.53C447.498 279.495 446.662 280.332 446.662 281.365C446.662 282.397 447.498 283.234 448.53 283.234H532.219C533.251 283.234 534.087 282.397 534.087 281.365C534.087 280.332 533.251 279.495 532.219 279.495Z" fill="#D0D5DD"/>
<path d="M442.179 295.571C442.179 294.538 441.343 293.701 440.311 293.701C439.28 293.701 438.443 294.538 438.443 295.571C438.443 296.603 439.28 297.44 440.311 297.44C441.343 297.44 442.179 296.603 442.179 295.571Z" fill="#C4C4C4"/>
<path d="M577.053 293.701H448.53C447.498 293.701 446.662 294.538 446.662 295.571C446.662 296.603 447.498 297.44 448.53 297.44H577.053C578.084 297.44 578.921 296.603 578.921 295.571C578.921 294.538 578.084 293.701 577.053 293.701Z" fill="#C4C4C4"/>
<path d="M442.179 309.777C442.179 308.745 441.343 307.908 440.311 307.908C439.28 307.908 438.443 308.745 438.443 309.777C438.443 310.81 439.28 311.647 440.311 311.647C441.343 311.647 442.179 310.81 442.179 309.777Z" fill="#C4C4C4"/>
<path d="M514.286 307.908H448.53C447.498 307.908 446.662 308.745 446.662 309.777C446.662 310.81 447.498 311.647 448.53 311.647H514.286C515.318 311.647 516.154 310.81 516.154 309.777C516.154 308.745 515.318 307.908 514.286 307.908Z" fill="#C4C4C4"/>
<path d="M442.179 323.983C442.179 322.95 441.343 322.114 440.311 322.114C439.28 322.114 438.443 322.95 438.443 323.983C438.443 325.015 439.28 325.852 440.311 325.852C441.343 325.852 442.179 325.015 442.179 323.983Z" fill="#C4C4C4"/>
<path d="M488.133 322.114H448.53C447.498 322.114 446.662 322.95 446.662 323.983C446.662 325.015 447.498 325.852 448.53 325.852H488.133C489.165 325.852 490.001 325.015 490.001 323.983C490.001 322.95 489.165 322.114 488.133 322.114Z" fill="#C4C4C4"/>
<path d="M442.179 338.189C442.179 337.156 441.343 336.32 440.311 336.32C439.28 336.32 438.443 337.156 438.443 338.189C438.443 339.221 439.28 340.058 440.311 340.058C441.343 340.058 442.179 339.221 442.179 338.189Z" fill="#C4C4C4"/>
<path d="M552.394 336.32H448.53C447.498 336.32 446.662 337.156 446.662 338.189C446.662 339.221 447.498 340.058 448.53 340.058H552.394C553.426 340.058 554.262 339.221 554.262 338.189C554.262 337.156 553.426 336.32 552.394 336.32Z" fill="#C4C4C4"/>
<path d="M442.179 352.394C442.179 351.362 441.343 350.525 440.311 350.525C439.28 350.525 438.443 351.362 438.443 352.394C438.443 353.426 439.28 354.263 440.311 354.263C441.343 354.263 442.179 353.426 442.179 352.394Z" fill="#C4C4C4"/>
<path d="M571.075 350.525H448.53C447.498 350.525 446.662 351.362 446.662 352.394C446.662 353.426 447.498 354.263 448.53 354.263H571.075C572.106 354.263 572.943 353.426 572.943 352.394C572.943 351.362 572.106 350.525 571.075 350.525Z" fill="#C4C4C4"/>
<path d="M483.894 144.165H431.644C430.406 144.165 429.402 145.17 429.402 146.408V198.746C429.402 199.985 430.406 200.989 431.644 200.989H483.894C485.132 200.989 486.136 199.985 486.136 198.746V146.408C486.136 145.17 485.132 144.165 483.894 144.165Z" fill="#FEFEFE"/>
<path d="M451.402 168.054L452.701 159.418H445.945L443.122 166.82C443.035 167.083 442.989 167.356 442.989 167.642C442.989 169.458 444.877 170.932 447.211 170.932C449.363 170.932 451.141 169.676 451.402 168.054ZM457.769 170.932C460.101 170.932 461.992 169.458 461.992 167.642C461.992 167.575 461.987 167.508 461.983 167.443L461.148 159.418H454.391L453.554 167.437C453.55 167.504 453.547 167.572 453.547 167.642C453.547 169.458 455.437 170.932 457.769 170.932ZM465.981 172.653V179.157H449.558V172.663C448.839 172.923 448.047 173.071 447.211 173.071C446.891 173.071 446.58 173.033 446.273 172.99V183.433C446.273 184.7 447.306 185.736 448.569 185.736H466.966C468.231 185.736 469.265 184.698 469.265 183.433V172.992C468.957 173.033 468.648 173.072 468.328 173.072C467.497 173.071 466.702 172.919 465.981 172.653ZM472.419 166.82L469.592 159.418H462.837L464.135 168.041C464.388 169.669 466.166 170.932 468.328 170.932C470.66 170.932 472.55 169.458 472.55 167.642C472.55 167.356 472.504 167.083 472.419 166.82Z" fill="#2C3344"/>
<path d="M1040.71 210.709H640.194C638.956 210.709 637.952 211.713 637.952 212.952V411.087C637.952 412.326 638.956 413.33 640.194 413.33H1040.71C1041.94 413.33 1042.95 412.326 1042.95 411.087V212.952C1042.95 211.713 1041.94 210.709 1040.71 210.709Z" fill="#FEFEFE"/>
<path d="M637.952 239.495H1042.95" stroke="#E5E5E5" stroke-width="0.421875"/>
<path d="M627.491 266.412H1032.49" stroke="#E5E5E5" stroke-width="0.421875"/>
<path d="M658.874 218.186H648.413C647.175 218.186 646.171 219.19 646.171 220.429V230.897C646.171 232.135 647.175 233.14 648.413 233.14H658.874C660.112 233.14 661.116 232.135 661.116 230.897V220.429C661.116 219.19 660.112 218.186 658.874 218.186Z" fill="#C4C4C4"/>
<path d="M694.741 218.934H669.335C668.097 218.934 667.094 219.938 667.094 221.177C667.094 222.416 668.097 223.42 669.335 223.42H694.741C695.979 223.42 696.983 222.416 696.983 221.177C696.983 219.938 695.979 218.934 694.741 218.934Z" fill="#C4C4C4"/>
<path d="M667.094 230.149C667.094 228.91 668.097 227.906 669.335 227.906H716.41C717.649 227.906 718.652 228.91 718.652 230.149C718.652 231.388 717.649 232.392 716.41 232.392H669.335C668.097 232.392 667.094 231.388 667.094 230.149Z" fill="#C4C4C4"/>
<path d="M1042.95 239.869H637.952V286.225H1042.95V239.869Z" fill="#EDF0F2"/>
<path d="M708.938 254.075H667.84C666.602 254.075 665.599 255.08 665.599 256.318C665.599 257.557 666.602 258.562 667.84 258.562H708.938C710.176 258.562 711.179 257.557 711.179 256.318C711.179 255.08 710.176 254.075 708.938 254.075Z" fill="#606E78"/>
<path d="M702.961 267.533H673.819C672.581 267.533 671.577 268.537 671.577 269.776C671.577 271.015 672.581 272.019 673.819 272.019H702.961C704.199 272.019 705.202 271.015 705.202 269.776C705.202 268.537 704.199 267.533 702.961 267.533Z" fill="#CBD2D7"/>
<path d="M637.952 285.851H1042.95" stroke="#E5E5E5" stroke-width="0.421875"/>
<path d="M1025.01 298.561H655.138C654.106 298.561 653.27 299.398 653.27 300.43V343.048C653.27 344.081 654.106 344.917 655.138 344.917H1025.01C1026.05 344.917 1026.88 344.081 1026.88 343.048V300.43C1026.88 299.398 1026.05 298.561 1025.01 298.561Z" stroke="#E5E5E5" stroke-width="0.421875"/>
<path d="M661.116 328.095C661.116 326.856 662.12 325.852 663.358 325.852H752.277C753.516 325.852 754.519 326.856 754.519 328.095V331.086C754.519 332.325 753.516 333.329 752.277 333.329H663.358C662.12 333.329 661.116 332.325 661.116 331.086V328.095Z" fill="#E5E5E5"/>
<path d="M661.116 312.393C661.116 311.155 662.12 310.15 663.358 310.15H815.044C816.282 310.15 817.286 311.155 817.286 312.393V316.88C817.286 318.118 816.282 319.123 815.044 319.123H663.358C662.12 319.123 661.116 318.118 661.116 316.88V312.393Z" fill="#C4C4C4"/>
<path d="M1025.01 354.637H655.138C654.106 354.637 653.27 355.474 653.27 356.506V399.124C653.27 400.156 654.106 400.993 655.138 400.993H1025.01C1026.05 400.993 1026.88 400.156 1026.88 399.124V356.506C1026.88 355.474 1026.05 354.637 1025.01 354.637Z" stroke="#E5E5E5" stroke-width="0.421875"/>
<path d="M620.393 215.943V568.1" stroke="#C4C4C4" stroke-width="0.421875" stroke-dasharray="2.11 0.84"/>
<path d="M620.392 217.812C622.043 217.812 623.381 216.473 623.381 214.822C623.381 213.17 622.043 211.831 620.392 211.831C618.741 211.831 617.403 213.17 617.403 214.822C617.403 216.473 618.741 217.812 620.392 217.812Z" fill="#FEFEFE" stroke="#C4C4C4" stroke-width="0.421875"/>
</g>
</g>
<path d="M250.5 58.5247C250.5 54.3825 253.858 51.0247 258 51.0247H723.501V357.025H250.5V58.5247Z" stroke="url(#paint1_linear_1_47440)"/>
</g>
<defs>
<filter id="filter0_d_1_47440" x="0" y="0.524658" width="774.001" height="607" filterUnits="userSpaceOnUse" color-interpolation-filters="sRGB">
<feFlood flood-opacity="0" result="BackgroundImageFix"/>
<feColorMatrix in="SourceAlpha" type="matrix" values="0 0 0 0 0 0 0 0 0 0 0 0 0 0 0 0 0 0 127 0" result="hardAlpha"/>
<feOffset dx="-100" dy="100"/>
<feGaussianBlur stdDeviation="75"/>
<feColorMatrix type="matrix" values="0 0 0 0 0.203922 0 0 0 0 0.25098 0 0 0 0 0.329412 0 0 0 0.12 0"/>
<feBlend mode="normal" in2="BackgroundImageFix" result="effect1_dropShadow_1_47440"/>
<feBlend mode="normal" in="SourceGraphic" in2="effect1_dropShadow_1_47440" result="shape"/>
</filter>
<filter id="filter1_b_1_47440" x="234" y="34.5247" width="933.065" height="73" filterUnits="userSpaceOnUse" color-interpolation-filters="sRGB">
<feFlood flood-opacity="0" result="BackgroundImageFix"/>
<feGaussianBlur in="BackgroundImageFix" stdDeviation="8"/>
<feComposite in2="SourceAlpha" operator="in" result="effect1_backgroundBlur_1_47440"/>
<feBlend mode="normal" in="SourceGraphic" in2="effect1_backgroundBlur_1_47440" result="shape"/>
</filter>
<linearGradient id="paint0_linear_1_47440" x1="279.082" y1="68.7246" x2="305.007" y2="211.145" gradientUnits="userSpaceOnUse">
<stop stop-color="#54EDF0"/>
<stop offset="1" stop-color="#30A9D9"/>
</linearGradient>
<linearGradient id="paint1_linear_1_47440" x1="250" y1="50.5247" x2="532.289" y2="482.737" gradientUnits="userSpaceOnUse">
<stop stop-color="white" stop-opacity="0.074"/>
<stop offset="0.2396" stop-color="white" stop-opacity="0.024"/>
<stop offset="0.4844" stop-color="white" stop-opacity="0.092"/>
<stop offset="0.7604" stop-color="white" stop-opacity="0.15"/>
<stop offset="1" stop-color="white" stop-opacity="0"/>
</linearGradient>
<clipPath id="clip0_1_47440">
<path d="M250 58.5247C250 54.1064 253.582 50.5247 258 50.5247H724.001V357.525H250V58.5247Z" fill="white"/>
</clipPath>
<clipPath id="clip1_1_47440">
<rect width="643.359" height="528.609" fill="white" transform="translate(414.531 129.212)"/>
</clipPath>
</defs>
</svg>
