<svg width="6" height="9" viewBox="0 0 6 9" fill="none" xmlns="http://www.w3.org/2000/svg">
<path fill-rule="evenodd" clip-rule="evenodd" d="M0.834074 8.34573C0.684098 8.1957 0.599845 7.99226 0.599845 7.78013C0.599845 7.568 0.684098 7.36455 0.834074 7.21453L3.46847 4.58013L0.834074 1.94573C0.757666 1.87193 0.69672 1.78365 0.654793 1.68605C0.612866 1.58845 0.590797 1.48347 0.589874 1.37725C0.588951 1.27102 0.609192 1.16568 0.649417 1.06736C0.689642 0.969047 0.749044 0.879725 0.824158 0.804611C0.899272 0.729497 0.988594 0.670094 1.08691 0.62987C1.18523 0.589645 1.29057 0.569403 1.3968 0.570326C1.50302 0.571249 1.60799 0.593318 1.7056 0.635245C1.8032 0.677173 1.89148 0.738119 1.96527 0.814527L5.16527 4.01453C5.31525 4.16455 5.3995 4.368 5.3995 4.58013C5.3995 4.79226 5.31525 4.9957 5.16527 5.14573L1.96527 8.34573C1.81525 8.4957 1.61181 8.57996 1.39967 8.57996C1.18754 8.57996 0.984097 8.4957 0.834074 8.34573Z" fill="#2B61DE"/>
</svg>
