<svg width="25" height="26" viewBox="0 0 25 26" fill="none" xmlns="http://www.w3.org/2000/svg">
<path d="M12.5 23.5017C18.299 23.5017 23 18.8007 23 13.0017C23 7.20272 18.299 2.50171 12.5 2.50171C6.70101 2.50171 2 7.20272 2 13.0017C2 18.8007 6.70101 23.5017 12.5 23.5017Z" fill="#EF492D"/>
<path d="M12.7447 19.8511C9.69338 19.8429 7.03474 17.9154 6.16746 15.0405C5.44312 12.6316 5.91273 10.4297 7.54191 8.50549C8.54343 7.32301 9.83495 6.59821 11.3533 6.28804C12.2026 6.11483 13.0774 6.10767 13.9294 6.26697C14.0247 6.28438 14.0257 6.31004 13.9885 6.387C13.5695 7.25932 13.1524 8.13286 12.7373 9.00762C12.727 9.03498 12.708 9.05814 12.6831 9.07348C12.6582 9.08882 12.6289 9.09547 12.5999 9.09238C11.7269 9.1147 10.8864 9.42835 10.2122 9.98342C9.538 10.5385 9.06879 11.3031 8.87925 12.1556C8.46096 14.0189 9.46889 15.9463 11.2474 16.6294C12.659 17.1714 13.9725 16.9556 15.1674 16.0292C15.2283 15.9834 15.2535 15.9742 15.297 16.0498C15.7552 16.8516 16.2173 17.6518 16.6834 18.4505C16.7242 18.5206 16.7095 18.5523 16.649 18.5944C15.749 19.2311 14.7079 19.6399 13.6151 19.7856C13.3264 19.8228 13.0358 19.8447 12.7447 19.8511Z" fill="white"/>
<path d="M17.4844 17.8672C17.4468 17.847 17.4363 17.8058 17.417 17.7724C16.896 16.8713 16.3767 15.9694 15.8593 15.0665C15.8417 15.0295 15.813 14.999 15.7772 14.9791C15.7414 14.9592 15.7003 14.951 15.6596 14.9557C14.6251 14.9589 13.591 14.9557 12.5565 14.9557H12.4278C12.4269 14.9159 12.4413 14.8773 12.4681 14.848C12.9934 13.9354 13.5191 13.0227 14.045 12.1101C14.059 12.0799 14.0821 12.0548 14.111 12.0384C14.1399 12.022 14.1732 12.015 14.2063 12.0185C15.2653 12.0212 16.3239 12.0212 17.3822 12.0185C17.4151 12.015 17.4483 12.022 17.4769 12.0385C17.5056 12.0549 17.5284 12.08 17.5421 12.1101C18.0702 13.0304 18.6007 13.9494 19.1337 14.8672C19.1515 14.8908 19.1615 14.9192 19.1624 14.9487C19.1632 14.9782 19.1548 15.0072 19.1383 15.0317C18.6029 15.9563 18.0694 16.8799 17.538 17.8026C17.5238 17.826 17.5174 17.858 17.4844 17.8672Z" fill="white"/>
<path d="M15.2545 8.17559C15.0648 7.98592 14.888 7.80449 14.7047 7.62581C14.6479 7.57083 14.6878 7.53006 14.712 7.48836C14.9218 7.12321 15.2632 6.85209 15.6664 6.73058C15.9107 6.64996 16.1692 6.62135 16.4252 6.6466C16.6813 6.67185 16.9292 6.75039 17.1531 6.87719C17.9777 7.32297 17.904 8.35702 17.428 8.82433C17.2475 8.99811 17.0431 9.14514 16.8209 9.26095C16.5918 9.38282 16.3628 9.49781 16.1383 9.62747C15.9518 9.73422 15.8066 9.88174 15.7392 10.0952C15.7117 10.1814 15.7282 10.2038 15.8203 10.2029C16.426 10.1992 17.0321 10.2029 17.6383 10.1992C17.7299 10.1992 17.7642 10.2166 17.7606 10.3165C17.7523 10.5305 17.7555 10.7449 17.7606 10.9579C17.7606 11.0257 17.7418 11.0496 17.6722 11.0496C16.6981 11.0477 15.7244 11.0477 14.751 11.0496C14.7052 11.0496 14.6626 11.0496 14.6621 10.9831C14.6621 10.3087 14.7867 9.68061 15.3145 9.19956C15.5659 8.97692 15.8481 8.79175 16.1525 8.64978C16.3192 8.56822 16.4878 8.49034 16.6335 8.37214C16.7609 8.26859 16.8489 8.14306 16.858 7.97355C16.8718 7.70828 16.6619 7.51127 16.3449 7.49066C15.889 7.45813 15.5601 7.66338 15.3301 8.04456C15.3072 8.08213 15.2861 8.12061 15.2545 8.17559Z" fill="white"/>
</svg>
