<svg xmlns="http://www.w3.org/2000/svg" width="721" height="475" viewBox="0 0 721 475" fill="none"><script xmlns="" src="chrome-extension://hoklmmgfnpapgjgcpechhaamimifchmp/frame_ant/frame_ant.js"/>
<g clip-path="url(#clip0_119_99823)" filter="url(#filter0_f_119_99823)">
<path d="M1185.46 176.669C1205.34 164.342 1205.34 144.104 1185.46 131.778L845.343 -79.1809C825.468 -91.5069 792.953 -91.5069 772.995 -79.1809L432.959 131.778C413.084 144.104 413.084 164.342 432.959 176.669L809.169 410.115L1185.38 176.669H1185.46Z" fill="url(#paint0_linear_119_99823)"/>
<path d="M1185.46 352.149C1205.34 339.822 1205.34 319.584 1185.46 307.258L845.343 96.2991C825.468 83.973 792.953 83.973 772.995 96.2991L432.959 307.258C413.084 319.584 413.084 339.822 432.959 352.149L809.169 585.594L1185.38 352.149H1185.46Z" fill="url(#paint1_linear_119_99823)" fill-opacity="0.5"/>
<path d="M1065.88 698.695C1194.53 618.908 1194.53 488.319 1065.88 408.532L845.426 271.779C825.551 259.453 793.036 259.453 773.078 271.779L432.959 482.739C413.084 495.065 413.084 515.303 432.959 527.629L708.796 698.695C807.007 759.576 967.67 759.576 1065.88 698.695Z" fill="url(#paint2_linear_119_99823)" fill-opacity="0.5"/>
</g>
<defs>
<filter id="filter0_f_119_99823" x="-62.46" y="-559.758" width="1742.92" height="1742.92" filterUnits="userSpaceOnUse" color-interpolation-filters="sRGB">
<feFlood flood-opacity="0" result="BackgroundImageFix"/>
<feBlend mode="normal" in="SourceGraphic" in2="BackgroundImageFix" result="shape"/>
<feGaussianBlur stdDeviation="31.5" result="effect1_foregroundBlur_119_99823"/>
</filter>
<linearGradient id="paint0_linear_119_99823" x1="703.142" y1="-13.303" x2="907.486" y2="308.395" gradientUnits="userSpaceOnUse">
<stop stop-color="#2F6AEB"/>
<stop offset="1" stop-color="#2727C7"/>
</linearGradient>
<linearGradient id="paint1_linear_119_99823" x1="696.239" y1="140.273" x2="913.684" y2="503.853" gradientUnits="userSpaceOnUse">
<stop stop-color="#41A7F0"/>
<stop offset="1" stop-color="#1B61D1"/>
</linearGradient>
<linearGradient id="paint2_linear_119_99823" x1="720.023" y1="328.663" x2="877.278" y2="755.174" gradientUnits="userSpaceOnUse">
<stop stop-color="#54EDF0"/>
<stop offset="1" stop-color="#30A9D9"/>
</linearGradient>
<clipPath id="clip0_119_99823">
<rect width="1143.34" height="1143.34" fill="white" transform="matrix(0.707107 -0.707107 -0.707107 -0.707107 809 1120.16)"/>
</clipPath>
</defs><script xmlns="" type="module" src="chrome-extension://ocolkjnalnkdaclepjmkigefcgngkadb/assets/detector.d8bf3127.js"/>
</svg>