<svg width="17" height="17" viewBox="0 0 17 17" fill="none" xmlns="http://www.w3.org/2000/svg">
<path d="M8.55957 15.5C12.4256 15.5 15.5596 12.366 15.5596 8.5C15.5596 4.63401 12.4256 1.5 8.55957 1.5C4.69358 1.5 1.55957 4.63401 1.55957 8.5C1.55957 12.366 4.69358 15.5 8.55957 15.5Z" stroke="white" stroke-linecap="round" stroke-linejoin="round"/>
<path d="M8.55939 15.5C9.95888 15.5 11.0934 12.366 11.0934 8.5C11.0934 4.63401 9.95888 1.5 8.55939 1.5C7.1599 1.5 6.02539 4.63401 6.02539 8.5C6.02539 12.366 7.1599 15.5 8.55939 15.5Z" stroke="white" stroke-linecap="round" stroke-linejoin="round"/>
<path d="M2.00781 6.25989H15.0838" stroke="white" stroke-linecap="round" stroke-linejoin="round"/>
<path d="M2.00781 10.7402H15.0838" stroke="white" stroke-linecap="round" stroke-linejoin="round"/>
</svg>
