<svg width="133" height="18" viewBox="0 0 133 18" fill="none" xmlns="http://www.w3.org/2000/svg">
<g clip-path="url(#clip0_1_55738)">
<path d="M79.0789 0.000488281C76.3643 0.000488281 73.7105 2.45874 73.4055 6.01068V0.293307H69.5068V17.5327H73.4531V9.18811C73.4531 6.85063 75.1097 3.5533 79.0789 3.5533V0.000488281Z" fill="#667085"/>
<path d="M120.473 14.7727V2.96168H122.759C125.807 2.96168 128.283 4.86668 128.283 8.77193C128.283 12.6772 125.807 14.7727 122.759 14.7727H120.473ZM116.567 17.5349H123.235C127.331 17.5349 132.379 14.8679 132.379 8.77193C132.379 2.77117 127.331 0.294678 123.235 0.294678H116.567V17.5349Z" fill="#667085"/>
<path d="M101.625 8.96255C101.625 5.81929 103.244 3.24753 105.911 3.24753C108.483 3.24753 109.911 5.81929 109.911 8.96255C109.911 12.1058 108.483 14.6775 105.911 14.6775C103.244 14.6775 101.625 12.1058 101.625 8.96255ZM97.624 9.15304C97.624 14.2966 100.291 17.916 104.482 17.916C107.53 17.916 109.34 15.9158 110.292 12.6773V17.535H114.197V0.294784H110.292V4.86679C109.435 1.81879 107.625 0.0090332 104.768 0.0090332C100.482 0.0090332 97.624 3.91428 97.624 9.15304Z" fill="#667085"/>
<path d="M8.69377 17.9158C3.83602 17.9158 0.978516 14.0106 0.978516 9.1528C0.978516 4.10455 4.12177 0.00878906 10.1225 0.00878906C16.3138 0.00878906 18.4092 4.19979 18.5045 6.58104H14.0278C13.9325 5.24755 12.7895 3.24729 10.0273 3.24729C7.07453 3.24729 5.16952 5.81905 5.16952 8.96229C5.16952 12.1055 7.07453 14.6773 10.0273 14.6773C12.6943 14.6773 13.8373 12.5818 14.3135 10.4863H10.0273V8.7718H19.0212V17.5347H15.0755V12.0103C14.7898 14.0106 13.5515 17.9158 8.69377 17.9158Z" fill="#667085"/>
<path d="M27.0212 17.916C23.3065 17.916 21.0205 15.4394 21.0205 10.4864V0.294678H25.0211V10.4864C25.0211 13.0582 26.2593 14.2964 28.3547 14.2964C32.4505 14.2964 33.9745 9.24819 33.9745 5.72392V0.294678H37.975V17.5349H34.0699V11.1532C33.3078 14.6774 31.2123 17.916 27.0212 17.916Z" fill="#667085"/>
<path d="M61.8812 0C58.4683 0 56.3151 3.29706 55.6123 6.34561C55.4922 2.2602 53.4831 0 50.2686 0C47.4914 0 44.9148 2.47673 44.2455 6.39493V0.293274H40.3457V17.534H44.2956V11.3532C44.2956 9.82098 44.9342 3.53284 48.9104 3.53284C51.4862 3.53284 51.7548 5.85622 51.7548 9.03212V17.534H55.7026V11.3532C55.7026 9.82098 56.3678 3.53284 60.344 3.53284C62.9175 3.53284 63.1834 5.85622 63.1834 9.03212V17.534H67.1369V7.33619C67.1551 2.44389 65.4277 0 61.8812 0Z" fill="#667085"/>
<path d="M87.5526 0C82.4393 0 78.9746 4.00935 78.9746 8.95803C78.9746 14.4107 82.2699 17.9159 87.5526 17.9159C92.6661 17.9159 96.1924 13.9067 96.1924 8.95803C96.1924 3.50532 92.8331 0 87.5526 0ZM87.5526 14.8643C84.5757 14.8643 82.6478 12.3442 82.6478 8.95803C82.6478 5.57185 84.5826 3.05164 87.5526 3.05164C90.5228 3.05164 92.3799 5.57185 92.3799 8.95803C92.3799 12.3442 90.5205 14.8643 87.5526 14.8643Z" fill="#667085"/>
</g>
<defs>
<clipPath id="clip0_1_55738">
<rect width="131.4" height="18" fill="white" transform="translate(0.978516)"/>
</clipPath>
</defs>
</svg>
