<svg width="28" height="29" viewBox="0 0 28 29" fill="none" xmlns="http://www.w3.org/2000/svg">
<path d="M14 28.3496C21.732 28.3496 28 22.0816 28 14.3496C28 6.61762 21.732 0.349609 14 0.349609C6.26801 0.349609 0 6.61762 0 14.3496C0 22.0816 6.26801 28.3496 14 28.3496Z" fill="url(#paint0_linear_269_2255)"/>
<path d="M14.4044 13.6045C14.4044 16.45 13.5877 19.1053 12.1772 21.3488M9.39357 19.6968C9.40757 19.6723 9.42274 19.649 9.4379 19.6245C10.5334 17.8827 11.1681 15.8223 11.1681 13.6033C11.1681 11.816 12.6171 10.367 14.4044 10.367C16.1917 10.367 17.6407 11.816 17.6407 13.6033C17.6407 14.4258 17.5847 15.2367 17.4762 16.0312M15.7624 21.5693C16.2571 20.5812 16.6631 19.5405 16.9687 18.459M20.0756 19.3748C20.5971 17.5408 20.8771 15.6053 20.8771 13.6045C20.8771 10.0298 17.9791 7.13184 14.4044 7.13184C13.2249 7.13184 12.1201 7.44684 11.1681 7.9975M7.12207 17.1348C7.64007 16.0673 7.93174 14.8692 7.93174 13.6033C7.93174 12.4238 8.24674 11.319 8.7974 10.367" stroke="white" stroke-width="1.6" stroke-miterlimit="10" stroke-linecap="round" stroke-linejoin="round"/>
<defs>
<linearGradient id="paint0_linear_269_2255" x1="4.10051" y1="4.45012" x2="23.8995" y2="24.2491" gradientUnits="userSpaceOnUse">
<stop offset="0.000285938" stop-color="#60A5FA"/>
<stop offset="0.9997" stop-color="#1D4ED8"/>
</linearGradient>
</defs>
</svg>
