<svg width="77" height="28" viewBox="0 0 77 28" fill="none" xmlns="http://www.w3.org/2000/svg">
<g clip-path="url(#clip0_1_55706)">
<path d="M6.14762 3.39415H2.89006L3.84615 0H11.2696L7.85494 13.8088C9.04323 12.1083 11.0647 10.558 13.1749 10.558C15.6744 10.558 17.8188 12.2176 17.8188 15.3932C17.8188 16.2059 17.6959 17.0937 17.3818 18.0839L16.1115 22.3317C15.9886 22.7756 15.9066 23.1512 15.9066 23.479C15.9066 24.2166 16.2276 24.5854 16.8286 24.5854C17.4227 24.5854 18.174 24.1756 19.0481 21.9219L20.7964 22.5571C19.7652 25.9171 17.9008 27.3171 15.5515 27.3171C12.8198 27.3171 11.5018 25.801 11.5018 23.7385C11.5018 23.1444 11.5837 22.5161 11.7818 21.8946L13.093 17.5376C13.2501 17.0595 13.291 16.6088 13.291 16.2059C13.291 14.799 12.3759 13.9522 10.9076 13.9522C9.04323 13.9522 7.73201 15.0995 7.09689 17.64L4.75445 27.0302H0.308594L6.14762 3.40098M54.9427 23.6634C54.9427 23.1102 55.011 22.5161 55.1681 21.8878L59.5388 3.39415H56.4452L57.3535 0H64.5037L59.3476 21.8537C59.1974 22.5161 59.0813 23.0351 59.0813 23.438C59.0813 24.2576 59.3476 24.5854 59.9486 24.5854C60.6315 24.5854 61.3418 24.1756 62.1681 21.9219L63.8276 22.5571C62.7008 26.3541 60.8159 27.3171 58.6715 27.3171C56.1037 27.3171 54.9427 25.8829 54.9427 23.6634ZM66.5525 23.6634C66.5525 23.1102 66.6208 22.5161 66.7779 21.8878L71.1486 3.39415H68.0549L68.9632 0H76.1135L70.9574 21.8537C70.8071 22.5161 70.691 23.0351 70.691 23.438C70.691 24.2576 70.9574 24.5854 71.5583 24.5854C72.2413 24.5854 72.9515 24.1756 73.7779 21.9219L75.4374 22.5571C74.3037 26.3541 72.4257 27.3171 70.2813 27.3171C67.7135 27.3171 66.5525 25.8829 66.5525 23.6634ZM54.2393 13.4878C54.2188 13.1054 54.171 12.8049 54.1505 12.6L54.1027 12.2927L54.0481 12.6L53.9866 12.9688L53.8979 13.4605C53.8296 13.8224 53.7203 14.2595 53.5905 14.7444C53.454 15.2224 53.2764 15.7483 53.0442 16.281C52.8052 16.8068 52.5115 17.3327 52.1291 17.8039C51.7535 18.282 51.3096 18.6917 50.7837 19.0468C50.2715 19.3951 49.691 19.682 49.0696 19.921C48.4481 20.16 47.7857 20.3512 47.1164 20.5151C46.4403 20.6927 45.7505 20.8361 45.0676 21C44.3779 21.1571 43.6881 21.3415 43.0188 21.5532C42.3564 21.7717 41.7008 22.0312 41.1066 22.3795C40.5066 22.7159 39.9741 23.1605 39.5359 23.6907C39.0247 24.3245 38.686 25.0797 38.5525 25.8829C38.4146 25.079 38.0764 24.3227 37.5691 23.6839C37.1301 23.1544 36.5977 22.71 35.9983 22.3727C35.4042 22.0312 34.7486 21.7649 34.0862 21.5532C33.4169 21.3278 32.7271 21.1571 32.0374 21C31.3544 20.8293 30.6647 20.6859 29.9886 20.5083C29.3283 20.3502 28.6783 20.1518 28.0423 19.9141C27.4208 19.6751 26.8403 19.3883 26.3213 19.04C25.8128 18.6958 25.3592 18.2767 24.9759 17.7971C24.6003 17.319 24.2998 16.7932 24.0676 16.2741C23.8286 15.7415 23.6579 15.2156 23.5213 14.7376C23.3579 14.1527 23.2235 13.5601 23.1184 12.962L23.0569 12.5932L23.0023 12.2859L22.9544 12.5932C22.9271 12.798 22.8862 13.0985 22.8657 13.481C22.8452 13.8702 22.8315 14.3483 22.8657 14.8946C22.893 15.441 22.9749 16.0624 23.1388 16.7385C23.3096 17.401 23.5691 18.118 23.9652 18.7873C24.5686 19.824 25.4296 20.6874 26.4647 21.2937C26.7925 21.4985 27.1476 21.6829 27.4891 21.84C28.1993 22.1541 28.9232 22.3727 29.6403 22.5571C30.3574 22.7346 31.0744 22.878 31.7574 23.001L32.7818 23.1717L33.7584 23.3561C34.3866 23.4927 34.9876 23.6293 35.5203 23.8341C36.0598 24.039 36.5379 24.2849 36.9203 24.6059C37.601 25.1917 38.083 25.9744 38.2998 26.8459C38.3822 27.1217 38.4483 27.4022 38.4979 27.6859L38.5525 28L38.6071 27.6927L38.6823 27.3307C38.7164 27.1941 38.7505 27.0302 38.8052 26.8527C38.9008 26.5112 39.051 26.1015 39.2764 25.7054C39.4949 25.3093 39.7886 24.92 40.1847 24.6127C40.6054 24.2797 41.0785 24.0189 41.5847 23.841C42.1174 23.6429 42.7183 23.4995 43.3466 23.3629L44.3232 23.1854C44.6647 23.1171 45.0062 23.0624 45.3476 23.0078C46.0583 22.8848 46.7645 22.7368 47.4647 22.5639C48.1818 22.3795 48.9125 22.1541 49.6091 21.84C50.3296 21.5285 51.0013 21.1145 51.6032 20.6107C52.2124 20.0963 52.7297 19.482 53.133 18.7941C53.5359 18.118 53.7954 17.401 53.9662 16.7454C54.2348 15.6818 54.3271 14.5813 54.2393 13.4878Z" fill="#667085"/>
<path d="M48.0115 12.2927L47.9774 12.4771L47.9364 12.7025L47.8749 13.003C47.834 13.2283 47.7657 13.4878 47.6701 13.7815C47.5795 14.1023 47.463 14.4152 47.3218 14.7171C47.0072 15.4105 46.4968 15.9968 45.8535 16.4039C45.512 16.6157 45.1296 16.7932 44.7266 16.9366C44.3237 17.08 43.8935 17.1961 43.4564 17.2986C43.0193 17.4078 42.5686 17.4966 42.1179 17.5922C41.6671 17.6878 41.2232 17.7971 40.7862 17.9337C40.3491 18.0635 39.9257 18.2205 39.5364 18.4322C39.1471 18.6439 38.7852 18.9103 38.512 19.2313C38.1815 19.6116 37.9597 20.074 37.8701 20.5698C37.7779 20.0748 37.5564 19.613 37.2281 19.2313C36.9549 18.9103 36.5998 18.6439 36.2037 18.4322C35.8144 18.2274 35.391 18.0635 34.954 17.9337C34.5237 17.7971 34.0662 17.6947 33.6222 17.5922C33.1783 17.4966 32.7276 17.4078 32.2837 17.2986C31.8466 17.1961 31.4164 17.08 31.0135 16.9366C30.6215 16.8011 30.2459 16.6225 29.8935 16.4039C29.2474 15.9999 28.7363 15.4127 28.4252 14.7171C28.2798 14.4154 28.1587 14.1025 28.0632 13.7815C27.9571 13.4268 27.8705 13.0666 27.8037 12.7025L27.7627 12.4771C27.7522 12.4155 27.7409 12.354 27.7286 12.2927L27.7013 12.4839C27.5804 13.3241 27.6222 14.1796 27.8242 15.0039C27.9717 15.5924 28.2404 16.1436 28.6132 16.6223C28.986 17.1009 29.4546 17.4964 29.9891 17.7835C30.6473 18.1238 31.3445 18.3829 32.0652 18.5552C32.5227 18.6508 32.9871 18.7396 33.4379 18.8147L34.1071 18.9239L34.7422 19.0332C35.152 19.1083 35.5481 19.1971 35.8964 19.32C36.2447 19.443 36.5588 19.5932 36.8047 19.7913C37.2428 20.1391 37.5586 20.6175 37.7062 21.1571L37.7881 21.4439L37.8359 21.6693L37.8701 21.8537L37.911 21.6693L37.9588 21.4439C38.0319 21.0953 38.1611 20.7609 38.3413 20.4537C38.4847 20.2147 38.6827 19.9757 38.9354 19.7913C39.1881 19.6 39.5023 19.4498 39.8505 19.3269C40.192 19.2039 40.5881 19.1152 40.9979 19.0332L41.633 18.9239L42.3023 18.8147C42.753 18.7464 43.2174 18.6508 43.6886 18.5415C44.153 18.4322 44.6242 18.3025 45.0818 18.1044C45.5469 17.9151 45.9835 17.6623 46.3793 17.3532C47.1401 16.76 47.6828 15.9315 47.9227 14.9971C48.0979 14.3525 48.158 13.6821 48.1003 13.0166C48.0866 12.7844 48.0593 12.6069 48.0388 12.4839L48.0115 12.2927Z" fill="#667085"/>
</g>
<defs>
<clipPath id="clip0_1_55706">
<rect width="75.8049" height="28" fill="white" transform="translate(0.308594)"/>
</clipPath>
</defs>
</svg>
