<svg width="71" height="28" viewBox="0 0 71 28" fill="none" xmlns="http://www.w3.org/2000/svg">
<g clip-path="url(#clip0_1_55651)">
<path d="M0.277344 26.0503H13.8487V27.993H0.277344V26.0503Z" fill="#667085"/>
<path d="M0.277344 22.324H13.8487V24.2735H0.277344V22.324Z" fill="#667085"/>
<path d="M4.14941 18.6045H9.97062V20.5541H4.14941V18.6045Z" fill="#667085"/>
<path d="M4.14941 14.885H9.97062V16.8346H4.14941V14.885Z" fill="#667085"/>
<path d="M4.14941 11.1655H9.97062V13.1152H4.14941V11.1655Z" fill="#667085"/>
<path d="M4.14941 7.43896H9.97062V9.3886H4.14941V7.43896Z" fill="#667085"/>
<path d="M13.8487 3.71948H0.277344V5.66912H13.8487V3.71948Z" fill="#667085"/>
<path d="M13.8487 0H0.277344V1.94964H13.8487V0Z" fill="#667085"/>
<path d="M15.7842 24.2736H36.6563C37.0088 23.6722 37.2715 23.0153 37.4306 22.324H15.7842V24.2736Z" fill="#667085"/>
<path d="M35.032 14.885H19.6631V16.8346H36.6567C36.2142 16.0879 35.668 15.4312 35.032 14.885Z" fill="#667085"/>
<path d="M19.6631 11.1655V13.1152H35.032C35.6819 12.569 36.228 11.9122 36.6567 11.1655H19.6631Z" fill="#667085"/>
<path d="M36.6563 3.71948H15.7842V5.66912H37.4306C37.2509 4.97776 36.9882 4.32101 36.6563 3.71948Z" fill="#667085"/>
<path d="M30.2405 0H15.7842V1.94964H35.2252C33.9254 0.746645 32.1625 0 30.2405 0Z" fill="#667085"/>
<path d="M25.4774 7.43896H19.6631V9.3886H25.4774V7.43896Z" fill="#667085"/>
<path d="M31.2979 9.3886H37.3818C37.5546 8.76641 37.6445 8.1096 37.6445 7.43896H31.2979V9.3886Z" fill="#667085"/>
<path d="M19.6631 18.6045H25.4774V20.5541H19.6631V18.6045Z" fill="#667085"/>
<path d="M31.2979 18.6045V20.5541H37.6445C37.6445 19.8835 37.5546 19.2268 37.3818 18.6045H31.2979Z" fill="#667085"/>
<path d="M15.7842 27.9792L30.2405 27.9999C32.1763 27.9999 33.9254 27.2533 35.2321 26.0503H15.7842V27.9792Z" fill="#667085"/>
<path d="M39.0557 26.0503H48.7484V27.993H39.0557V26.0503Z" fill="#667085"/>
<path d="M39.0557 22.324H48.7484V24.2735H39.0557V22.324Z" fill="#667085"/>
<path d="M42.9268 18.6045H48.748V20.5541H42.9268V18.6045Z" fill="#667085"/>
<path d="M42.9268 14.885H48.748V16.8346H42.9268V14.885Z" fill="#667085"/>
<path d="M51.4448 3.71948H39.0557V5.66912H52.1154L51.4448 3.71948Z" fill="#667085"/>
<path d="M50.1588 0H39.0557V1.94964H50.8294L50.1588 0Z" fill="#667085"/>
<path d="M60.377 26.0503H70.0767V27.993H60.377V26.0503Z" fill="#667085"/>
<path d="M60.377 22.324H70.0767V24.2735H60.377V22.324Z" fill="#667085"/>
<path d="M60.377 18.6045H66.1982V20.5541H60.377V18.6045Z" fill="#667085"/>
<path d="M60.377 14.885H66.1982V16.8346H60.377V14.885Z" fill="#667085"/>
<path d="M60.3766 13.1152H66.1978V11.1655H60.3766H55.1085L54.5623 12.7419L54.0162 11.1655H48.748H42.9268V13.1152H48.748V11.3245L49.3633 13.1152H59.7614L60.3766 11.3245V13.1152Z" fill="#667085"/>
<path d="M66.1987 7.43896H56.3952L55.7246 9.3886H66.1987V7.43896Z" fill="#667085"/>
<path d="M58.9734 0L58.3027 1.94964H70.0766V0H58.9734Z" fill="#667085"/>
<path d="M54.5632 27.9792L55.2338 26.0503H53.8926L54.5632 27.9792Z" fill="#667085"/>
<path d="M53.2772 24.2735H55.8491L56.5404 22.324H52.5928L53.2772 24.2735Z" fill="#667085"/>
<path d="M51.9706 20.5541H57.1558L57.8402 18.6045H51.2861L51.9706 20.5541Z" fill="#667085"/>
<path d="M50.6706 16.8346H58.4622L59.1259 14.885H50L50.6706 16.8346Z" fill="#667085"/>
<path d="M42.9268 9.3886H53.4008L52.7302 7.43896H42.9268V9.3886Z" fill="#667085"/>
<path d="M57.0176 5.66912H70.0773V3.71948H57.6813L57.0176 5.66912Z" fill="#667085"/>
</g>
<defs>
<clipPath id="clip0_1_55651">
<rect width="69.7995" height="28" fill="white" transform="translate(0.277344)"/>
</clipPath>
</defs>
</svg>
