<svg xmlns="http://www.w3.org/2000/svg" width="40" height="41" viewBox="0 0 40 41" fill="none"><script xmlns="" src="chrome-extension://hoklmmgfnpapgjgcpechhaamimifchmp/frame_ant/frame_ant.js"/>
<ellipse cx="3.33333" cy="3.33333" rx="3.33333" ry="3.33333" transform="matrix(1 0 0 -1 16.667 33.8333)" fill="url(#paint0_radial_102_95185)"/>
<ellipse cx="4.44444" cy="4.44444" rx="4.44444" ry="4.44444" transform="matrix(1 0 0 -1 19.4443 27.7222)" fill="url(#paint1_radial_102_95185)"/>
<ellipse cx="5.55556" cy="5.55556" rx="5.55556" ry="5.55556" transform="matrix(1 0 0 -1 9.44434 24.3889)" fill="url(#paint2_radial_102_95185)"/>
<path d="M16.6925 34.5246C18.2799 36.859 21.7206 36.859 23.3079 34.5246L34.6396 17.8604C36.4454 15.2048 34.5433 11.6111 31.3319 11.6111H8.66851C5.45708 11.6111 3.55499 15.2048 5.36081 17.8604L16.6925 34.5246Z" stroke="url(#paint3_linear_102_95185)" strokeWidth="2"/>
<path d="M29.4447 25.5L23.3079 34.5246C21.7206 36.859 18.2799 36.859 16.6925 34.5246L5.36081 17.8604C3.55499 15.2048 5.45709 11.6111 8.66851 11.6111H20.0002" stroke="url(#paint4_linear_102_95185)" strokeWidth="2"/>
<path d="M20 1.61125L20 12.4446" stroke="url(#paint5_linear_102_95185)" strokeWidth="2"/>
<defs>
<radialGradient id="paint0_radial_102_95185" cx="0" cy="0" r="1" gradientUnits="userSpaceOnUse" gradientTransform="translate(2.4359 2.30769) rotate(71.565) scale(5.67588 5.67588)">
<stop offset="0.213542" stop-color="#1650E4"/>
<stop offset="1" stop-color="#3DDBE7"/>
</radialGradient>
<radialGradient id="paint1_radial_102_95185" cx="0" cy="0" r="1" gradientUnits="userSpaceOnUse" gradientTransform="translate(3.24786 3.07692) rotate(71.565) scale(7.56784 7.56784)">
<stop offset="0.213542" stop-color="#1650E4"/>
<stop offset="1" stop-color="#3DDBE7"/>
</radialGradient>
<radialGradient id="paint2_radial_102_95185" cx="0" cy="0" r="1" gradientUnits="userSpaceOnUse" gradientTransform="translate(4.70085 2.77778) rotate(76.8275) scale(10.3141)">
<stop offset="0.170198" stop-color="#B5A6EF"/>
<stop offset="0.724405" stop-color="#475467"/>
</radialGradient>
<linearGradient id="paint3_linear_102_95185" x1="31.6669" y1="17.7222" x2="17.778" y2="11.6111" gradientUnits="userSpaceOnUse">
<stop stop-color="#475467"/>
<stop offset="0.83366" stop-color="#475467" stop-opacity="0"/>
</linearGradient>
<linearGradient id="paint4_linear_102_95185" x1="15.7946" y1="41.2005" x2="33.5576" y2="40.8063" gradientUnits="userSpaceOnUse">
<stop stop-color="#475467"/>
<stop offset="0.83366" stop-color="#475467"/>
</linearGradient>
<linearGradient id="paint5_linear_102_95185" x1="20.7017" y1="10.7779" x2="20.7017" y2="3.98104" gradientUnits="userSpaceOnUse">
<stop stop-color="#475467"/>
<stop offset="1" stop-color="#475467" stop-opacity="0"/>
</linearGradient>
</defs><script xmlns="" type="module" src="chrome-extension://ocolkjnalnkdaclepjmkigefcgngkadb/assets/detector.d8bf3127.js"/>
</svg>