<svg width="91" height="24" viewBox="0 0 91 24" fill="none" xmlns="http://www.w3.org/2000/svg">
<g clip-path="url(#clip0_1_55746)">
<path d="M6.48963 23.2941L8.00846 14.7529H10.5614L12.985 23.2941H19.125L15.8288 11.7441L23.229 0H17.0891L10.9492 9.70588H8.88097L10.5937 0H4.77691L0.672852 23.2941H6.48963ZM29.1276 23.2941L33.2338 0H27.3678L23.229 23.2941H29.1276ZM39.8528 23.2941L45.1804 15.8529L48.3446 23.2941H54.9637L49.959 11.7441L59.0642 0H52.4452L46.6333 7.57059L43.9534 0H37.3344L41.7901 11.7441L33.2338 23.2941H39.8528ZM64.9628 23.2941L69.069 0H63.203L59.0642 23.2941H64.9628ZM85.3288 23.2941L86.2357 18.2471H75.8061L76.4539 14.4618H85.0697L85.9766 9.41471H77.3608L78.1058 5.04706H88.5354L89.4423 0H73.1825L69.069 23.2941H85.3288Z" fill="#667085"/>
</g>
<defs>
<clipPath id="clip0_1_55746">
<rect width="90.3529" height="24" fill="white" transform="translate(0.378906)"/>
</clipPath>
</defs>
</svg>
