<svg xmlns="http://www.w3.org/2000/svg" width="18" height="19" viewBox="0 0 18 19" fill="none">
    <script xmlns=""
        src="chrome-extension://hoklmmgfnpapgjgcpechhaamimifchmp/frame_ant/frame_ant.js" />
    <path
        d="M16.6676 0.161621H1.32891C0.594141 0.161621 0 0.741699 0 1.45889V16.8608C0 17.578 0.594141 18.1616 1.32891 18.1616H16.6676C17.4023 18.1616 18 17.578 18 16.8644V1.45889C18 0.741699 17.4023 0.161621 16.6676 0.161621ZM5.34023 15.5003H2.66836V6.9081H5.34023V15.5003ZM4.0043 5.7374C3.14648 5.7374 2.45391 5.04482 2.45391 4.19053C2.45391 3.33623 3.14648 2.64365 4.0043 2.64365C4.85859 2.64365 5.55117 3.33623 5.55117 4.19053C5.55117 5.04131 4.85859 5.7374 4.0043 5.7374ZM15.3387 15.5003H12.6703V11.3237C12.6703 10.3288 12.6527 9.0456 11.2816 9.0456C9.89297 9.0456 9.68203 10.1319 9.68203 11.2534V15.5003H7.01719V6.9081H9.57656V8.08232H9.61172C9.9668 7.40732 10.8387 6.69365 12.1359 6.69365C14.8395 6.69365 15.3387 8.47256 15.3387 10.7858V15.5003Z"
        fill="#98A2B3" />
    <script xmlns="" type="module"
        src="chrome-extension://ocolkjnalnkdaclepjmkigefcgngkadb/assets/detector.d8bf3127.js" />
</svg>
