<svg width="125" height="32" viewBox="0 0 125 32" fill="none" xmlns="http://www.w3.org/2000/svg">
<path d="M46.97 10.8192L48.6016 8.8301C47.0818 7.69025 45.4949 7.0868 43.5505 7.0868C40.9802 7.0868 38.6111 8.4725 38.6111 11.445C38.6111 14.1494 40.8238 15.1775 42.9247 15.9374C44.5562 16.5185 46.1431 17.0772 46.1431 18.5747C46.1431 20.2062 44.7574 20.8767 43.3717 20.8767C41.7625 20.8767 40.7344 20.2733 39.371 18.9546L37.4936 20.765C39.1922 22.4412 40.9802 23.2682 43.3493 23.2682C45.9419 23.2682 49.0709 21.8601 49.0709 18.4182C49.0709 15.2669 46.4783 14.2388 44.1763 13.4565C42.9247 13.0319 41.3825 12.5402 41.3825 11.3109C41.3825 10.1264 42.4106 9.47825 43.7069 9.47825C44.9138 9.47825 46.1654 10.104 46.97 10.8192ZM51.8954 11.4897V23H54.5997V15.3563C55.2702 14.2835 56.3877 13.5906 57.4605 13.5906C58.2875 13.5906 58.8686 13.8812 59.2038 14.4623C59.6285 15.1775 59.6508 16.2503 59.6508 17.2113V23H62.3552V17.0102C62.3552 15.3339 62.1764 13.8141 61.3271 12.6966C60.6119 11.7803 59.5391 11.2215 58.1534 11.2215C56.7677 11.2215 55.4043 11.8697 54.488 13.1883L54.3539 11.4897H51.8954ZM68.3066 23V11.4897H65.6022V23H68.3066ZM68.3066 9.61235V7.0868H65.6022V9.61235H68.3066ZM77.5033 13.7694V11.4897H74.4637V8.85245H72.0275L71.737 11.4897H70.3066V13.7694H71.737V18.9323C71.737 19.6922 71.804 20.4521 72.0275 21.0555C72.4745 22.3742 73.592 23.2459 75.313 23.2459C76.1623 23.2459 77.1457 23.0224 77.8162 22.6424L77.0116 20.5862C76.6316 20.7873 76.2293 20.8991 75.7376 20.8991C74.8883 20.8991 74.5754 20.385 74.486 19.491C74.4637 19.1334 74.4637 18.8652 74.4637 18.53V13.7694H77.5033ZM87.2547 20.0498C86.6065 20.6085 85.7796 20.8991 84.9526 20.8991C83.1646 20.8991 81.6672 19.3793 81.6672 17.2337C81.6672 15.2222 83.0976 13.5906 84.975 13.5906C85.8243 13.5906 86.6065 13.9035 87.2547 14.4623L88.5957 12.4508C87.5676 11.6685 86.2936 11.2215 84.8856 11.2215C81.4213 11.2215 78.9181 13.8812 78.9181 17.2337C78.9181 20.832 81.4213 23.2682 84.7738 23.2682C86.316 23.2682 87.657 22.8435 88.6627 21.9719L87.2547 20.0498ZM93.5595 6.2375H90.8551V23H93.5595V15.3563C94.23 14.2835 95.3475 13.5906 96.4203 13.5906C97.2472 13.5906 97.8283 13.8812 98.1636 14.4623C98.5882 15.1775 98.6106 16.2503 98.6106 17.2113V23H101.315V17.0102C101.315 15.3339 101.136 13.8141 100.287 12.6966C99.5716 11.7803 98.4988 11.2215 97.1131 11.2215C95.7721 11.2215 94.4535 11.825 93.5595 13.0542V6.2375ZM114.821 17.9265C114.888 17.5019 114.932 16.9878 114.932 16.5632C114.932 13.4789 112.63 11.2215 109.501 11.2215C106.238 11.2215 103.713 13.8588 103.713 17.3231C103.713 20.7426 105.948 23.2682 109.501 23.2682C111.893 23.2682 113.39 22.3742 114.664 20.4968L112.831 19.2675C112.116 20.4744 111.155 21.0555 109.658 21.0555C107.78 21.0555 106.618 19.6475 106.439 17.9265H114.821ZM112.161 15.9821H106.596C106.953 14.507 107.914 13.3895 109.568 13.3895C110.999 13.3895 112.094 14.4846 112.161 15.9821ZM119.92 11.4897H117.439V23H120.166V15.2445C120.725 14.2611 121.552 13.7024 122.535 13.7024C122.96 13.7024 123.295 13.7694 123.63 13.9482L124.234 11.4227C123.809 11.2886 123.384 11.2215 122.848 11.2215C121.664 11.2215 120.747 12.0038 120.054 13.1213L119.92 11.4897Z" fill="white"/>
<g clipPath="url(#clip0_4128_137325)">
<path d="M14 28.8496C21.732 28.8496 28 22.5816 28 14.8496C28 7.11762 21.732 0.849609 14 0.849609C6.26801 0.849609 0 7.11762 0 14.8496C0 22.5816 6.26801 28.8496 14 28.8496Z" fill="url(#paint0_linear_4128_137325)"/>
<path d="M14.4044 14.1045C14.4044 16.95 13.5877 19.6053 12.1772 21.8488M9.39357 20.1968C9.40757 20.1723 9.42274 20.149 9.4379 20.1245C10.5334 18.3827 11.1681 16.3223 11.1681 14.1033C11.1681 12.316 12.6171 10.867 14.4044 10.867C16.1917 10.867 17.6407 12.316 17.6407 14.1033C17.6407 14.9258 17.5847 15.7367 17.4762 16.5312M15.7624 22.0693C16.2571 21.0812 16.6631 20.0405 16.9687 18.959M20.0756 19.8748C20.5971 18.0408 20.8771 16.1053 20.8771 14.1045C20.8771 10.5298 17.9791 7.63184 14.4044 7.63184C13.2249 7.63184 12.1201 7.94684 11.1681 8.4975M7.12207 17.6348C7.64007 16.5673 7.93174 15.3692 7.93174 14.1033C7.93174 12.9238 8.24674 11.819 8.7974 10.867" stroke="white" strokeWidth="1.6" stroke-miterlimit="10" strokeLinecap="round" strokeLinejoin="round"/>
</g>
<defs>
<linearGradient id="paint0_linear_4128_137325" x1="4.10051" y1="4.95012" x2="23.8995" y2="24.7491" gradientUnits="userSpaceOnUse">
<stop offset="0.000285938" stop-color="#60A5FA"/>
<stop offset="0.9997" stop-color="#1D4ED8"/>
</linearGradient>
<clipPath id="clip0_4128_137325">
<rect width="28" height="28" fill="white" transform="translate(0 0.849609)"/>
</clipPath>
</defs>
</svg>
