<svg width="20" height="19" viewBox="0 0 20 19" fill="white" xmlns="http://www.w3.org/2000/svg">
<path d="M5.07847 8.88201C5.02668 8.5482 4.99981 8.20622 4.99981 7.85801C4.99981 4.17611 8.00421 1.19135 11.7103 1.19135C15.4165 1.19135 18.4209 4.17611 18.4209 7.85801C18.4209 8.68974 18.2675 9.48589 17.9875 10.2201C17.9293 10.3726 17.9002 10.4488 17.887 10.5084C17.8739 10.5673 17.8689 10.6088 17.8674 10.6692C17.866 10.7302 17.8743 10.7973 17.8908 10.9316L18.2263 13.6568C18.2626 13.9518 18.2808 14.0993 18.2317 14.2065C18.1887 14.3005 18.1123 14.3751 18.0174 14.4159C17.9091 14.4625 17.762 14.441 17.4679 14.3979L14.8135 14.0088C14.675 13.9885 14.6056 13.9783 14.5425 13.9787C14.4801 13.979 14.4369 13.9836 14.3758 13.9965C14.314 14.0095 14.2351 14.039 14.0773 14.0981C13.3412 14.3738 12.5435 14.5247 11.7103 14.5247C11.3618 14.5247 11.0196 14.4983 10.6854 14.4474M6.35949 17.858C8.83023 17.858 10.8332 15.806 10.8332 13.2747C10.8332 10.7434 8.83023 8.69135 6.35949 8.69135C3.88874 8.69135 1.8858 10.7434 1.8858 13.2747C1.8858 13.7835 1.96673 14.273 2.11613 14.7303C2.17928 14.9236 2.21085 15.0203 2.22122 15.0863C2.23204 15.1552 2.23393 15.1939 2.2299 15.2636C2.22604 15.3303 2.20935 15.4058 2.17596 15.5566L1.6665 17.858L4.16217 17.5172C4.29839 17.4986 4.3665 17.4893 4.42598 17.4897C4.4886 17.4901 4.52184 17.4935 4.58326 17.5057C4.64159 17.5174 4.7283 17.548 4.90173 17.6092C5.35866 17.7704 5.84909 17.858 6.35949 17.858Z" stroke="currentColor" strokeWidth="1.66667" strokeLinecap="round" strokeLinejoin="round"></path>
</svg>