<svg width="120" height="20" viewBox="0 0 120 20" fill="none" xmlns="http://www.w3.org/2000/svg">
<g clip-path="url(#clip0_1_55726)">
<path d="M6.23203 19.7532H0.518555V0.323755H10.3999L21.7359 14.829V0.323755H27.4493V19.7532H17.7682L6.23203 5.00038V19.7532ZM54.7861 13.7455C54.7861 16.4463 54.3088 17.377 53.5176 18.2705C52.3053 19.6004 50.5424 20 47.1438 20H37.3887C33.99 20 32.2249 19.6 31.0137 18.2705C30.224 17.3777 29.7456 16.4463 29.7456 13.7455V6.25559C29.7456 3.55524 30.224 2.62491 31.0137 1.73061C32.2249 0.399575 33.9904 0 37.3887 0H47.1441C50.5424 0 52.3056 0.399955 53.5176 1.73061C54.3084 2.62454 54.7861 3.55486 54.7861 6.25559V13.7455ZM46.9038 15.0766C48.2087 15.0766 48.6689 15.0004 48.9813 14.7157C49.2747 14.4495 49.404 14.1072 49.404 12.9657V7.03465C49.404 5.89355 49.2747 5.55311 48.9813 5.28584C48.6689 5.00038 48.2087 4.92494 46.9038 4.92494H37.6279C36.323 4.92494 35.8632 5.00038 35.5515 5.28584C35.2574 5.55311 35.1288 5.89393 35.1288 7.03465V12.9657C35.1288 14.1068 35.257 14.4495 35.5515 14.7157C35.8632 15.0004 36.323 15.0766 37.6279 15.0766H46.9038ZM63.0892 0.323755V19.7532H57.1195V0.323755H63.0892ZM73.1753 0.323755H81.0565L70.42 9.41201L82.4167 19.7532H73.9832L63.0892 9.62014L73.1753 0.323755ZM83.518 0.323755H89.4897V19.7532H83.518V0.323755ZM112.253 19.7532L110.486 16.3686H98.9331L97.1877 19.7532H90.5921L101.175 0.323376H108.596L119.178 19.7532H112.253ZM101.008 12.1484H108.431L104.719 5.11411L101.008 12.1484Z" fill="#667085"/>
</g>
<defs>
<clipPath id="clip0_1_55726">
<rect width="119" height="20" fill="white" transform="translate(0.455078)"/>
</clipPath>
</defs>
</svg>
