<svg width="44" height="44" viewBox="0 0 44 44" fill="none" xmlns="http://www.w3.org/2000/svg">
<g filter="url(#filter0_d_1_51411)">
<rect x="2" y="1" width="40" height="40" rx="8" fill="url(#paint0_linear_1_51411)"/>
<g clip-path="url(#clip0_1_51411)">
<g filter="url(#filter1_dd_1_51411)">
<path d="M22 24.3333V28.5M22 24.3333L27 28.5M22 24.3333L17 28.5M29.5 13.5V20.3333C29.5 21.7335 29.5 22.4335 29.2275 22.9683C28.9879 23.4387 28.6054 23.8212 28.135 24.0608C27.6002 24.3333 26.9002 24.3333 25.5 24.3333H18.5C17.0999 24.3333 16.3998 24.3333 15.865 24.0608C15.3946 23.8212 15.0122 23.4387 14.7725 22.9683C14.5 22.4335 14.5 21.7335 14.5 20.3333V13.5M18.6667 18.5V21M22 16.8333V21M25.3334 20.1667V21M30.3334 13.5H13.6667" stroke="white" stroke-width="1.66667" stroke-linecap="round" stroke-linejoin="round"/>
</g>
</g>
<rect x="2.5" y="1.5" width="39" height="39" rx="7.5" stroke="url(#paint1_linear_1_51411)"/>
</g>
<defs>
<filter id="filter0_d_1_51411" x="0" y="0" width="44" height="44" filterUnits="userSpaceOnUse" color-interpolation-filters="sRGB">
<feFlood flood-opacity="0" result="BackgroundImageFix"/>
<feColorMatrix in="SourceAlpha" type="matrix" values="0 0 0 0 0 0 0 0 0 0 0 0 0 0 0 0 0 0 127 0" result="hardAlpha"/>
<feOffset dy="1"/>
<feGaussianBlur stdDeviation="1"/>
<feColorMatrix type="matrix" values="0 0 0 0 0.0627451 0 0 0 0 0.0941176 0 0 0 0 0.156863 0 0 0 0.05 0"/>
<feBlend mode="normal" in2="BackgroundImageFix" result="effect1_dropShadow_1_51411"/>
<feBlend mode="normal" in="SourceGraphic" in2="effect1_dropShadow_1_51411" result="shape"/>
</filter>
<filter id="filter1_dd_1_51411" x="6.83337" y="10.6667" width="30.3333" height="28.6667" filterUnits="userSpaceOnUse" color-interpolation-filters="sRGB">
<feFlood flood-opacity="0" result="BackgroundImageFix"/>
<feColorMatrix in="SourceAlpha" type="matrix" values="0 0 0 0 0 0 0 0 0 0 0 0 0 0 0 0 0 0 127 0" result="hardAlpha"/>
<feMorphology radius="2" operator="erode" in="SourceAlpha" result="effect1_dropShadow_1_51411"/>
<feOffset dy="2"/>
<feGaussianBlur stdDeviation="2"/>
<feColorMatrix type="matrix" values="0 0 0 0 0.0627451 0 0 0 0 0.0941176 0 0 0 0 0.156863 0 0 0 0.06 0"/>
<feBlend mode="normal" in2="BackgroundImageFix" result="effect1_dropShadow_1_51411"/>
<feColorMatrix in="SourceAlpha" type="matrix" values="0 0 0 0 0 0 0 0 0 0 0 0 0 0 0 0 0 0 127 0" result="hardAlpha"/>
<feMorphology radius="2" operator="erode" in="SourceAlpha" result="effect2_dropShadow_1_51411"/>
<feOffset dy="4"/>
<feGaussianBlur stdDeviation="4"/>
<feColorMatrix type="matrix" values="0 0 0 0 0.0627451 0 0 0 0 0.0941176 0 0 0 0 0.156863 0 0 0 0.1 0"/>
<feBlend mode="normal" in2="effect1_dropShadow_1_51411" result="effect2_dropShadow_1_51411"/>
<feBlend mode="normal" in="SourceGraphic" in2="effect2_dropShadow_1_51411" result="shape"/>
</filter>
<linearGradient id="paint0_linear_1_51411" x1="1.99938" y1="40.9998" x2="41.9995" y2="0.999513" gradientUnits="userSpaceOnUse">
<stop stop-color="#101828"/>
<stop offset="1" stop-color="#475467"/>
</linearGradient>
<linearGradient id="paint1_linear_1_51411" x1="2" y1="2.68906" x2="49.6677" y2="20.6492" gradientUnits="userSpaceOnUse">
<stop stop-color="white"/>
<stop offset="1" stop-color="white" stop-opacity="0.2"/>
</linearGradient>
<clipPath id="clip0_1_51411">
<rect width="20" height="20" fill="white" transform="translate(12 11)"/>
</clipPath>
</defs>
</svg>
