<svg width="153" height="36" viewBox="0 0 153 36" fill="none" xmlns="http://www.w3.org/2000/svg">
<g clip-path="url(#clip0_1_55641)">
<path d="M18.9566 0.275211C9.164 0.275211 1.22559 8.21363 1.22559 18.0062C1.22559 24.0448 4.24663 29.3751 8.85722 32.577V18.0062C8.85722 12.4285 13.3788 7.90685 18.9566 7.90685C24.5343 7.90685 29.0559 12.4285 29.0559 18.0062C29.0559 23.584 24.5343 28.1056 18.9566 28.1056C16.7023 28.1056 14.6277 27.358 12.9472 26.1096V34.6909C14.824 35.367 16.8468 35.7373 18.9566 35.7373C28.7492 35.7373 36.6876 27.7988 36.6876 18.0062C36.6876 8.21363 28.7492 0.275211 18.9566 0.275211Z" fill="#667085"/>
<path d="M24.8645 18.0061C24.8645 21.269 22.2195 23.9141 18.9567 23.9141C15.6938 23.9141 13.0488 21.269 13.0488 18.0061C13.0488 14.7433 15.6938 12.0983 18.9567 12.0983C22.2195 12.0983 24.8645 14.7433 24.8645 18.0061Z" fill="#667085"/>
<path d="M52.692 17.9931C53.9367 17.9931 54.6509 17.3091 54.6509 16.1167C54.6509 14.9491 53.9554 14.3061 52.692 14.3061H50.5189V17.9931H52.692ZM47.8779 23.9463V12.0772H52.8404C55.5446 12.0772 57.2917 13.6628 57.2917 16.1167C57.2917 18.5338 55.4611 20.2221 52.8404 20.2221H50.5189V23.9463H47.8779Z" fill="#667085"/>
<path d="M63.0127 23.9463V12.0772H71.4212V14.3227H65.6535V16.8067H70.9267V19.0687H65.6535V21.7007H71.4378V23.9463H63.0127Z" fill="#667085"/>
<path d="M82.45 18.0589C83.6867 18.0589 84.4249 17.3453 84.4249 16.1496C84.4249 14.9675 83.7051 14.2898 82.45 14.2898H79.9963V18.0589H82.45ZM84.2647 23.9463L82.1547 20.2551H79.9963V23.9463H77.3555V12.0772H82.7298C85.3643 12.0772 87.0663 13.6823 87.0663 16.1662C87.0663 17.7851 86.2464 19.1298 84.8631 19.7998L87.3237 23.9463H84.2647Z" fill="#667085"/>
<path d="M114.05 14.0917C112.355 14.0917 111.383 15.172 111.383 17.0557V18.9674C111.383 20.8511 112.355 21.9314 114.05 21.9314C115.745 21.9314 116.718 20.8511 116.718 18.9674V17.0557C116.718 15.172 115.745 14.0917 114.05 14.0917ZM114.05 24.1768C110.826 24.1768 108.742 22.0865 108.742 18.852V17.1712C108.742 13.9365 110.826 11.8464 114.05 11.8464C117.325 11.8464 119.359 13.8868 119.359 17.1712V18.852C119.359 22.1364 117.325 24.1768 114.05 24.1768Z" fill="#667085"/>
<path d="M132.718 23.9463L127.949 16.6598V23.9463H125.357V12.0772H127.806L132.575 19.3636V12.0772H135.166V23.9463H132.718Z" fill="#667085"/>
<path d="M147.89 19.3609L146.469 14.8709L145.034 19.3609H147.89ZM149.364 23.9463L148.589 21.5239H144.35L143.576 23.9463H140.927L145.183 12.0772H147.757L152.013 23.9463H149.364Z" fill="#667085"/>
<path d="M100.708 19.7618C100.511 21.132 99.5833 21.9477 98.2039 21.9477C95.9541 21.9477 95.6189 20.07 95.6189 18.9508V17.0723C95.6189 15.953 95.9541 14.0754 98.2039 14.0754C99.5795 14.0754 100.506 14.8868 100.706 16.2504L103.155 15.8853C102.826 13.4852 100.851 11.8464 98.2039 11.8464C94.9419 11.8464 92.9941 13.8433 92.9941 17.1877V18.8357C92.9941 22.1801 94.9419 24.1768 98.2039 24.1768C100.855 24.1768 102.832 22.5329 103.157 20.1269L100.708 19.7618Z" fill="#667085"/>
</g>
<defs>
<clipPath id="clip0_1_55641">
<rect width="152" height="36" fill="white" transform="translate(0.277344)"/>
</clipPath>
</defs>
</svg>
