<svg width="93" height="28" viewBox="0 0 93 28" fill="none" xmlns="http://www.w3.org/2000/svg">
<g clip-path="url(#clip0_1_55693)">
<path d="M13.9874 15.6752C13.0002 14.1197 12.2524 13.1026 11.7438 12.7137C14.3165 12.0556 16.8592 9.90171 16.8592 6.37179C16.8592 2.0641 13.8977 0 9.20108 0C5.07287 0 2.67971 1.94444 2.14125 5.32479H0.0771484L4.17544 8.82479L8.51305 5.32479H6.17971C6.17971 5.32479 6.20963 2.90171 9.26091 2.90171C11.8635 2.90171 12.7609 4.81624 12.7609 6.40171C12.7609 8.70513 11.5344 10.4701 8.60279 10.4701H2.11134V21.7179H6.20963V13.2521C7.10706 13.2521 7.97458 13.5812 9.50023 15.8248L13.1498 21.7179H17.7267L13.9874 15.6752Z" fill="#667085"/>
<path d="M72.4102 21.718V1.22656H76.2093V21.6881H72.4102V21.718Z" fill="#667085"/>
<path d="M25.3548 19.1154C27.2394 19.1154 28.3163 18.5171 29.0043 18.1582L30.2308 20.6112C29.3035 21.1197 27.8676 21.9573 25.0257 21.9573C20.359 21.9573 17.7266 18.9958 17.7266 14.5684C17.7266 10.171 20.7778 7.3291 24.6368 7.3291C29.0043 7.3291 31.0984 10.4402 30.6496 15.5855H21.765C21.9445 17.7094 23.0214 19.1154 25.3548 19.1154ZM26.9402 12.9231C26.9103 11.3376 26.2821 10.0812 24.5471 10.0812C22.9317 10.0812 22.0343 11.0684 21.765 12.9231H26.9402Z" fill="#667085"/>
<path d="M39.5346 21.9573C35.0773 21.9573 32.3252 18.9659 32.3252 14.6582C32.3252 9.96158 35.4363 7.3291 39.6543 7.3291C41.9278 7.3291 43.2739 8.01714 43.932 8.43594L42.7055 10.9188C42.0773 10.53 41.1799 10.0812 39.7739 10.0812C37.5303 10.0812 36.3637 11.9659 36.3637 14.5385C36.3637 17.1112 37.4705 19.1154 39.8637 19.1154C41.479 19.1154 42.3466 18.4573 42.7654 18.1881L43.932 20.6411C43.3038 21.0599 42.1072 21.9573 39.5346 21.9573Z" fill="#667085"/>
<path d="M49.8252 7.7478V16.3632C49.8252 17.7692 50.3038 18.4871 51.6799 18.4871C53.1457 18.4871 54.2525 17.0811 54.5517 16.7521V7.77772H58.3508V17.7093C58.3508 19.4743 58.5602 20.8803 58.7098 21.7179H54.9705C54.8508 21.3589 54.7012 20.4316 54.6713 19.8632C53.9234 20.8205 52.4875 22.0769 50.1841 22.0769C47.1328 22.0769 45.9961 20.1025 45.9961 17.5598V7.7478H49.8252Z" fill="#667085"/>
<path d="M69.449 11.0983C69.2097 10.9487 68.7909 10.7693 67.9832 10.7693C66.308 10.7693 65.2909 12.265 64.932 12.8932V21.6881H61.1328V7.74789H64.932V9.63251C65.5302 8.61541 66.667 7.38892 68.4619 7.38892C69.479 7.38892 70.0473 7.59832 70.3465 7.74789L69.449 11.0983Z" fill="#667085"/>
<path d="M88.4152 7.7478L85.7229 16.9316L82.4622 7.7478H78.2742L83.6289 20.6111C82.7314 24.1111 81.834 25.1581 79.8297 25.1581C78.9622 25.1581 78.4836 25.0384 78.2742 24.9786L77.7656 27.6709C78.0648 27.7606 78.8725 28.0299 80.069 28.0299C83.9878 28.0299 85.7229 25.4572 86.9793 22.0769L91.2571 11.3076L92.6331 7.77772L88.4152 7.7478Z" fill="#667085"/>
</g>
<defs>
<clipPath id="clip0_1_55693">
<rect width="92.5556" height="28" fill="white" transform="translate(0.0771484)"/>
</clipPath>
</defs>
</svg>
