<svg width="137" height="24" viewBox="0 0 137 24" fill="none" xmlns="http://www.w3.org/2000/svg">
<g clip-path="url(#clip0_1_55711)">
<path d="M51.2907 1.70847C52.6886 2.84881 53.3876 4.48271 53.3876 6.61017C53.4239 7.92174 53.0185 9.20748 52.2364 10.261C51.4554 11.2791 50.3577 12.0083 49.1164 12.3336V12.3986C49.894 12.6664 50.5786 13.1513 51.0893 13.7959C51.572 14.421 52.0873 15.4678 52.6351 16.9363L54.97 23.4163H49.7103L47.8351 17.8576C47.3958 16.5858 46.8859 15.7044 46.3056 15.2136C45.7252 14.7227 44.8649 14.4759 43.7246 14.4732H41.0622V23.4224H36.2256V0H44.8452C47.7388 0 49.8873 0.569492 51.2907 1.70847ZM41.0622 10.6231H44.4832C47.1802 10.6231 48.5286 9.47051 48.5286 7.16542C48.5286 4.99593 47.0927 3.91119 44.2208 3.91119H41.0622V10.6231Z" fill="#667085"/>
<path d="M68.278 7.26717C69.5523 7.98271 70.5873 9.05804 71.2536 10.3587C71.9533 11.697 72.3031 13.2651 72.3031 15.0631C72.3031 16.8611 71.9526 18.4285 71.2516 19.7655C70.5853 21.0662 69.5503 22.1416 68.276 22.857C66.9933 23.5811 65.4861 23.9431 63.7546 23.9431C62.0231 23.9431 60.5153 23.5811 59.2312 22.857C57.9568 22.1417 56.9218 21.0663 56.2556 19.7655C55.5533 18.4285 55.2027 16.8611 55.2041 15.0631C55.2055 13.2651 55.556 11.6977 56.2556 10.3607C56.9219 9.06001 57.9569 7.98464 59.2312 7.26921C60.5139 6.54514 62.0217 6.18311 63.7546 6.18311C65.4875 6.18311 66.9953 6.54446 68.278 7.26717ZM61.0414 11.1824C60.3729 12.1479 60.0387 13.4414 60.0387 15.0631C60.0387 16.6848 60.3729 17.9784 61.0414 18.9438C61.6479 19.8485 62.6654 20.3914 63.7546 20.3914C64.8438 20.3914 65.8613 19.8485 66.4678 18.9438C67.1363 17.9797 67.4705 16.6862 67.4705 15.0631C67.4705 13.4401 67.1363 12.1465 66.4678 11.1824C65.8613 10.2777 64.8438 9.7348 63.7546 9.7348C62.6654 9.7348 61.6479 10.2777 61.0414 11.1824Z" fill="#667085"/>
<path d="M74.6094 23.4163V0H79.2182V23.4163H74.6094Z" fill="#667085"/>
<path d="M82.4033 23.4163V0H87.0081V23.4163H82.4033Z" fill="#667085"/>
<path d="M94.8344 8.71525C95.338 7.94895 96.0365 7.33049 96.8581 6.92339C97.6986 6.49691 98.6288 6.27726 99.5713 6.28271C100.866 6.2569 102.137 6.63665 103.206 7.36881C104.285 8.14133 105.119 9.20921 105.606 10.4441C106.191 11.9129 106.476 13.4842 106.444 15.0651C106.477 16.6475 106.186 18.22 105.59 19.6861C105.089 20.9245 104.241 21.9922 103.149 22.7614C102.071 23.4942 100.791 23.8738 99.4879 23.8475C98.5238 23.8527 97.5739 23.6148 96.7259 23.1559C95.8842 22.706 95.1811 22.0352 94.692 21.2156H94.6269V23.4183H90.1523V0H94.7571V8.71525H94.8344ZM95.4893 11.1986C94.8534 12.1315 94.5354 13.4197 94.5354 15.0631C94.5354 16.7064 94.8534 17.9946 95.4893 18.9275C96.1252 19.859 96.9693 20.3247 98.0215 20.3247C99.1171 20.3247 99.9944 19.8502 100.653 18.901C101.312 17.9519 101.641 16.6746 101.64 15.0692C101.64 13.4692 101.311 12.1919 100.653 11.2373C99.9957 10.2827 99.1184 9.80814 98.0215 9.81356C96.972 9.80407 96.1279 10.2658 95.4893 11.1986Z" fill="#667085"/>
<path d="M121.28 7.8426C122.485 8.9504 123.088 10.6006 123.088 12.7931V18.8419C123.088 20.728 123.241 22.2521 123.547 23.4141H119.404C119.24 22.68 119.163 21.929 119.174 21.1768H119.109C117.881 22.9314 116.072 23.8087 113.683 23.8087C111.95 23.8087 110.568 23.3341 109.538 22.385C108.518 21.4564 107.953 20.1292 107.992 18.7504C107.992 17.3253 108.491 16.1728 109.489 15.2928C110.487 14.4128 112.148 13.7877 114.472 13.4175C115.876 13.1992 117.268 13.046 118.65 12.9579V12.366C118.65 11.3572 118.408 10.6114 117.926 10.1287C117.443 9.64599 116.774 9.40464 115.92 9.40464C115.065 9.40464 114.402 9.62904 113.931 10.0779C113.44 10.5723 113.162 11.2399 113.158 11.9368H108.684C108.728 10.3388 109.444 8.83358 110.657 7.79176C111.885 6.71786 113.639 6.18091 115.918 6.18091C118.286 6.18226 120.073 6.73616 121.28 7.8426ZM115.294 16.1145C114.328 16.2894 113.638 16.5524 113.221 16.9036C112.805 17.2548 112.597 17.7592 112.597 18.4168C112.573 18.9965 112.808 19.5568 113.238 19.9463C113.665 20.3301 114.275 20.5219 115.068 20.5219C115.567 20.5232 116.062 20.44 116.532 20.2758C116.97 20.1316 117.37 19.8896 117.7 19.568C118.059 19.2191 118.32 18.7822 118.457 18.3009C118.608 17.6711 118.676 17.0243 118.66 16.3768V15.7524C117.337 15.8406 116.214 15.9612 115.294 16.1145Z" fill="#667085"/>
<path d="M136.44 6.63866V10.6231C135.963 10.5259 135.479 10.4708 134.992 10.4583C133.589 10.4583 132.514 10.8915 131.768 11.758C131.022 12.6244 130.65 13.88 130.65 15.5248V23.4183H126.047V6.70781H130.29V9.07933H130.355C130.822 8.25841 131.493 7.57189 132.303 7.08611C133.104 6.6476 134.006 6.4267 134.919 6.44544C135.432 6.43837 135.945 6.50341 136.44 6.63866Z" fill="#667085"/>
<path d="M30.095 23.3837V2.94707C30.0421 1.64334 29.9974 -0.339715 27.093 0.846048C22.2299 2.62571 17.3404 4.33825 12.5241 6.23181C8.8733 7.66571 4.87466 9.23995 2.81635 16.922C2.27737 18.9355 1.53703 21.3722 0.998047 23.3857H5.72483C6.16008 21.7586 6.70517 19.7064 7.14856 18.0793C8.62313 12.5877 11.5174 11.4406 14.1594 10.4013C17.9506 8.91046 21.7947 7.55384 25.6204 6.15045V23.3877L30.095 23.3837Z" fill="#667085"/>
<path d="M12.3963 12.4087C11.9134 12.6718 11.4612 12.9876 11.0479 13.3504C9.62414 14.6216 8.84719 16.4358 8.36109 18.246L7.01465 23.2209H12.3963V12.4087Z" fill="#667085"/>
<path d="M18.2497 10.0312C17.0293 10.4841 15.8171 10.9472 14.6131 11.4204C14.2897 11.5465 13.9704 11.6726 13.6592 11.8048V23.2211H18.2497V10.0312Z" fill="#667085"/>
<path d="M24.3494 23.2209V7.79785C22.7365 8.38361 21.1216 8.96938 19.5107 9.56328V23.2209H24.3494Z" fill="#667085"/>
</g>
<defs>
<clipPath id="clip0_1_55711">
<rect width="135.458" height="24" fill="white" transform="translate(0.998047)"/>
</clipPath>
</defs>
</svg>
