<svg width="115" height="34" viewBox="0 0 115 34" fill="none" xmlns="http://www.w3.org/2000/svg">
<g clip-path="url(#clip0_1_55748)">
<path d="M25.0123 6.63949C24.9897 6.48166 24.8544 6.39148 24.7417 6.39148C24.629 6.39148 22.3968 6.34638 22.3968 6.34638C22.3968 6.34638 20.5254 4.54263 20.345 4.33971C20.1647 4.15933 19.8039 4.20443 19.6686 4.24952C19.6686 4.24952 19.3079 4.36225 18.7217 4.54263C18.6315 4.22697 18.4737 3.84368 18.2707 3.43783C17.6169 2.1752 16.6248 1.4988 15.4524 1.4988C15.3622 1.4988 15.2945 1.4988 15.2044 1.52134C15.1593 1.47625 15.1367 1.43116 15.0916 1.40861C14.573 0.867482 13.9192 0.596919 13.13 0.619466C11.6194 0.66456 10.1088 1.76936 8.86867 3.70839C8.01189 5.08376 7.35803 6.79732 7.15511 8.12759C5.41899 8.66872 4.20146 9.05201 4.15637 9.05201C3.27704 9.32258 3.25449 9.34512 3.14175 10.1794C3.09666 10.8107 0.796875 28.6002 0.796875 28.6002L20.097 31.9371L28.4619 29.8628C28.4394 29.8628 25.0348 6.79732 25.0123 6.63949ZM17.7522 4.85829C17.3012 4.99357 16.8052 5.1514 16.2641 5.33177C16.2641 4.56518 16.1513 3.48292 15.8131 2.58105C16.963 2.76142 17.5267 4.06914 17.7522 4.85829ZM15.2494 5.62488C14.2348 5.94054 13.13 6.27874 12.0252 6.61695C12.3409 5.42196 12.9271 4.24952 13.6486 3.46038C13.9192 3.16727 14.3025 2.85161 14.7309 2.67124C15.1818 3.55057 15.272 4.79065 15.2494 5.62488ZM13.1751 1.63408C13.5359 1.63408 13.829 1.70172 14.077 1.88209C13.6712 2.08502 13.2653 2.40067 12.9046 2.80652C11.9351 3.84368 11.191 5.44451 10.8979 7.00024C9.97347 7.29335 9.07159 7.56392 8.2599 7.81193C8.80103 5.35432 10.8528 1.70172 13.1751 1.63408Z" fill="#667085"/>
<path d="M24.7413 6.3918C24.6286 6.3918 22.3965 6.3467 22.3965 6.3467C22.3965 6.3467 20.5251 4.54295 20.3447 4.34003C20.2771 4.27239 20.1869 4.22729 20.0967 4.22729V31.9375L28.4616 29.8631C28.4616 29.8631 25.057 6.79764 25.0345 6.63981C24.9894 6.48199 24.8541 6.3918 24.7413 6.3918Z" fill="#475467"/>
<path d="M15.4523 10.6978L14.4828 14.3279C14.4828 14.3279 13.4005 13.8319 12.1154 13.922C10.2214 14.0348 10.2214 15.2298 10.2214 15.5229C10.3341 17.1463 14.5955 17.507 14.8435 21.3174C15.0239 24.3162 13.2652 26.3679 10.6949 26.5258C7.62852 26.6836 5.9375 24.8798 5.9375 24.8798L6.59136 22.1066C6.59136 22.1066 8.30493 23.3917 9.65774 23.3016C10.5371 23.2565 10.8753 22.5124 10.8302 22.0164C10.6949 19.897 7.22267 20.0323 6.99721 16.5375C6.81683 13.6064 8.73332 10.6527 12.9721 10.3822C14.6181 10.2694 15.4523 10.6978 15.4523 10.6978Z" fill="white"/>
<path d="M39.7803 18.4318C38.8108 17.9133 38.3148 17.4623 38.3148 16.8536C38.3148 16.087 39.0137 15.5909 40.096 15.5909C41.3586 15.5909 42.4859 16.1095 42.4859 16.1095L43.3653 13.4039C43.3653 13.4039 42.5536 12.7726 40.1636 12.7726C36.8267 12.7726 34.5043 14.6891 34.5043 17.3721C34.5043 18.9053 35.5866 20.0552 37.0296 20.8895C38.202 21.5433 38.6079 22.0168 38.6079 22.7158C38.6079 23.4373 38.0216 24.0235 36.9394 24.0235C35.3386 24.0235 33.8054 23.1892 33.8054 23.1892L32.8584 25.8949C32.8584 25.8949 34.2563 26.8418 36.6237 26.8418C40.0509 26.8418 42.531 25.1508 42.531 22.107C42.5085 20.4611 41.2684 19.2886 39.7803 18.4318Z" fill="#667085"/>
<path d="M53.4438 12.7277C51.7528 12.7277 50.4225 13.5394 49.4079 14.7569L49.3628 14.7343L50.8284 7.0684H47.0179L43.2977 26.594H47.1081L48.3707 19.9201C48.8668 17.3949 50.1745 15.8391 51.392 15.8391C52.2488 15.8391 52.587 16.4254 52.587 17.2596C52.587 17.7782 52.5419 18.432 52.4292 18.9506L50.9862 26.594H54.7966L56.2847 18.7026C56.4425 17.8684 56.5553 16.8763 56.5553 16.1999C56.5778 14.0354 55.4505 12.7277 53.4438 12.7277Z" fill="#667085"/>
<path d="M65.213 12.7273C60.6134 12.7273 57.5696 16.876 57.5696 21.4981C57.5696 24.4517 59.3959 26.8417 62.823 26.8417C67.3324 26.8417 70.3762 22.8058 70.3762 18.071C70.3988 15.3428 68.7979 12.7273 65.213 12.7273ZM63.3416 23.9332C62.0339 23.9332 61.4927 22.8284 61.4927 21.4304C61.4927 19.2434 62.6201 15.681 64.6944 15.681C66.0472 15.681 66.4981 16.8534 66.4981 17.9808C66.4981 20.3257 65.3482 23.9332 63.3416 23.9332Z" fill="#667085"/>
<path d="M80.1621 12.7273C77.5917 12.7273 76.1262 15.0046 76.1262 15.0046H76.0811L76.3066 12.9528H72.9245C72.7667 14.3282 72.451 16.4476 72.1579 18.0259L69.4974 32.005H73.3078L74.3675 26.3457H74.4577C74.4577 26.3457 75.2469 26.8417 76.6899 26.8417C81.1767 26.8417 84.1078 22.2421 84.1078 17.5975C84.1078 15.0271 82.9579 12.7273 80.1621 12.7273ZM76.5095 23.9783C75.5174 23.9783 74.9312 23.4146 74.9312 23.4146L75.5625 19.8522C76.0135 17.4622 77.2535 15.8839 78.5838 15.8839C79.7562 15.8839 80.117 16.9662 80.117 17.9808C80.117 20.4609 78.6514 23.9783 76.5095 23.9783Z" fill="#667085"/>
<path d="M89.5635 7.24869C88.346 7.24869 87.3764 8.21821 87.3764 9.45829C87.3764 10.5856 88.0979 11.3748 89.1802 11.3748H89.2253C90.4203 11.3748 91.4349 10.5631 91.4574 9.16518C91.4574 8.06038 90.7134 7.24869 89.5635 7.24869Z" fill="#667085"/>
<path d="M84.2201 26.5713H88.0305L90.6234 13.0431H86.7905L84.2201 26.5713Z" fill="#667085"/>
<path d="M100.341 13.0208H97.6804L97.8157 12.3895C98.0411 11.0818 98.8077 9.93187 100.093 9.93187C100.769 9.93187 101.31 10.1348 101.31 10.1348L102.055 7.13606C102.055 7.13606 101.401 6.79785 99.9802 6.79785C98.6274 6.79785 97.2745 7.18115 96.2374 8.06048C94.9297 9.16528 94.3209 10.7661 94.0278 12.3895L93.9151 13.0208H92.1338L91.5702 15.9068H93.3514L91.3222 26.594H95.1326L97.1618 15.9068H99.7998L100.341 13.0208Z" fill="#667085"/>
<path d="M109.54 13.0431C109.54 13.0431 107.15 19.0631 106.09 22.355H106.045C105.977 21.2953 105.098 13.0431 105.098 13.0431H101.085L103.385 25.4665C103.43 25.737 103.407 25.9174 103.294 26.0978C102.843 26.9546 102.099 27.7888 101.22 28.3976C100.499 28.9161 99.6869 29.2544 99.0555 29.4798L100.115 32.7266C100.882 32.5688 102.505 31.9149 103.858 30.6523C105.594 29.0289 107.218 26.5036 108.863 23.0765L113.531 13.0431H109.54Z" fill="#667085"/>
</g>
<defs>
<clipPath id="clip0_1_55748">
<rect width="113.27" height="33" fill="white" transform="translate(0.731445 0.5)"/>
</clipPath>
</defs>
</svg>
