<svg width="109" height="22" viewBox="0 0 109 22" fill="none" xmlns="http://www.w3.org/2000/svg">
<mask id="mask0_222_218" style="mask-type:luminance" maskUnits="userSpaceOnUse" x="0" y="1" width="21" height="21">
<path d="M20.5 1.00171H0.5V21.0017H20.5V1.00171Z" fill="white"/>
</mask>
<g mask="url(#mask0_222_218)">
<path d="M10.0384 2.6117C10.2092 2.20105 10.791 2.20105 10.9618 2.6117L13.0279 7.57917C13.0999 7.75229 13.2627 7.87058 13.4496 7.88556L18.8124 8.31549C19.2557 8.35104 19.4355 8.90429 19.0977 9.19362L15.0118 12.6936C14.8694 12.8156 14.8072 13.007 14.8507 13.1894L16.099 18.4226C16.2022 18.8552 15.7316 19.1971 15.352 18.9653L10.7607 16.1609C10.6007 16.0632 10.3995 16.0632 10.2394 16.1609L5.64813 18.9653C5.26858 19.1971 4.79795 18.8552 4.90115 18.4226L6.14946 13.1894C6.19296 13.007 6.13077 12.8156 5.98838 12.6936L1.90248 9.19362C1.56471 8.90429 1.74448 8.35104 2.1878 8.31549L7.55061 7.88556C7.73751 7.87058 7.90031 7.75229 7.97232 7.57917L10.0384 2.6117Z" fill="#F2F4F7"/>
<mask id="mask1_222_218" style="mask-type:luminance" maskUnits="userSpaceOnUse" x="0" y="1" width="21" height="21">
<path d="M20.5 1.00171H0.5V21.0017H20.5V1.00171Z" fill="white"/>
</mask>
<g mask="url(#mask1_222_218)">
<path d="M10.0384 2.6117C10.2092 2.20105 10.791 2.20105 10.9618 2.6117L13.0279 7.57917C13.0999 7.75229 13.2627 7.87058 13.4496 7.88556L18.8124 8.31549C19.2557 8.35104 19.4355 8.90429 19.0977 9.19362L15.0118 12.6936C14.8694 12.8156 14.8072 13.007 14.8507 13.1894L16.099 18.4226C16.2022 18.8552 15.7316 19.1971 15.352 18.9653L10.7607 16.1609C10.6007 16.0632 10.3995 16.0632 10.2394 16.1609L5.64813 18.9653C5.26858 19.1971 4.79795 18.8552 4.90115 18.4226L6.14946 13.1894C6.19296 13.007 6.13077 12.8156 5.98838 12.6936L1.90248 9.19362C1.56471 8.90429 1.74448 8.35104 2.1878 8.31549L7.55061 7.88556C7.73751 7.87058 7.90031 7.75229 7.97232 7.57917L10.0384 2.6117Z" fill="#FDB022"/>
</g>
</g>
<mask id="mask2_222_218" style="mask-type:luminance" maskUnits="userSpaceOnUse" x="22" y="1" width="21" height="21">
<path d="M42.5 1.00171H22.5V21.0017H42.5V1.00171Z" fill="white"/>
</mask>
<g mask="url(#mask2_222_218)">
<path d="M32.0384 2.6117C32.2092 2.20105 32.791 2.20105 32.9618 2.6117L35.0279 7.57917C35.0999 7.75229 35.2627 7.87058 35.4496 7.88556L40.8124 8.31549C41.2557 8.35104 41.4355 8.90429 41.0977 9.19362L37.0118 12.6936C36.8694 12.8156 36.8072 13.007 36.8507 13.1894L38.099 18.4226C38.2022 18.8552 37.7316 19.1971 37.352 18.9653L32.7607 16.1609C32.6007 16.0632 32.3995 16.0632 32.2395 16.1609L27.6482 18.9653C27.2686 19.1971 26.798 18.8552 26.9012 18.4226L28.1495 13.1894C28.193 13.007 28.1308 12.8156 27.9884 12.6936L23.9025 9.19362C23.5647 8.90429 23.7445 8.35104 24.1878 8.31549L29.5506 7.88556C29.7375 7.87058 29.9003 7.75229 29.9723 7.57917L32.0384 2.6117Z" fill="#F2F4F7"/>
<mask id="mask3_222_218" style="mask-type:luminance" maskUnits="userSpaceOnUse" x="22" y="1" width="21" height="21">
<path d="M42.5 1.00171H22.5V21.0017H42.5V1.00171Z" fill="white"/>
</mask>
<g mask="url(#mask3_222_218)">
<path d="M32.0384 2.6117C32.2092 2.20105 32.791 2.20105 32.9618 2.6117L35.0279 7.57917C35.0999 7.75229 35.2627 7.87058 35.4496 7.88556L40.8124 8.31549C41.2557 8.35104 41.4355 8.90429 41.0977 9.19362L37.0118 12.6936C36.8694 12.8156 36.8072 13.007 36.8507 13.1894L38.099 18.4226C38.2022 18.8552 37.7316 19.1971 37.352 18.9653L32.7607 16.1609C32.6007 16.0632 32.3995 16.0632 32.2395 16.1609L27.6482 18.9653C27.2686 19.1971 26.798 18.8552 26.9012 18.4226L28.1495 13.1894C28.193 13.007 28.1308 12.8156 27.9884 12.6936L23.9025 9.19362C23.5647 8.90429 23.7445 8.35104 24.1878 8.31549L29.5506 7.88556C29.7375 7.87058 29.9003 7.75229 29.9723 7.57917L32.0384 2.6117Z" fill="#FDB022"/>
</g>
</g>
<mask id="mask4_222_218" style="mask-type:luminance" maskUnits="userSpaceOnUse" x="44" y="1" width="21" height="21">
<path d="M64.5 1.00171H44.5V21.0017H64.5V1.00171Z" fill="white"/>
</mask>
<g mask="url(#mask4_222_218)">
<path d="M54.0384 2.6117C54.2092 2.20105 54.791 2.20105 54.9618 2.6117L57.0279 7.57917C57.0999 7.75229 57.2627 7.87058 57.4496 7.88556L62.8124 8.31549C63.2557 8.35104 63.4355 8.90429 63.0977 9.19362L59.0118 12.6936C58.8694 12.8156 58.8072 13.007 58.8507 13.1894L60.099 18.4226C60.2022 18.8552 59.7316 19.1971 59.352 18.9653L54.7607 16.1609C54.6007 16.0632 54.3995 16.0632 54.2395 16.1609L49.6482 18.9653C49.2686 19.1971 48.798 18.8552 48.9012 18.4226L50.1495 13.1894C50.193 13.007 50.1308 12.8156 49.9884 12.6936L45.9025 9.19362C45.5647 8.90429 45.7445 8.35104 46.1878 8.31549L51.5506 7.88556C51.7375 7.87058 51.9003 7.75229 51.9723 7.57917L54.0384 2.6117Z" fill="#F2F4F7"/>
<mask id="mask5_222_218" style="mask-type:luminance" maskUnits="userSpaceOnUse" x="44" y="1" width="21" height="21">
<path d="M64.5 1.00171H44.5V21.0017H64.5V1.00171Z" fill="white"/>
</mask>
<g mask="url(#mask5_222_218)">
<path d="M54.0384 2.6117C54.2092 2.20105 54.791 2.20105 54.9618 2.6117L57.0279 7.57917C57.0999 7.75229 57.2627 7.87058 57.4496 7.88556L62.8124 8.31549C63.2557 8.35104 63.4355 8.90429 63.0977 9.19362L59.0118 12.6936C58.8694 12.8156 58.8072 13.007 58.8507 13.1894L60.099 18.4226C60.2022 18.8552 59.7316 19.1971 59.352 18.9653L54.7607 16.1609C54.6007 16.0632 54.3995 16.0632 54.2395 16.1609L49.6482 18.9653C49.2686 19.1971 48.798 18.8552 48.9012 18.4226L50.1495 13.1894C50.193 13.007 50.1308 12.8156 49.9884 12.6936L45.9025 9.19362C45.5647 8.90429 45.7445 8.35104 46.1878 8.31549L51.5506 7.88556C51.7375 7.87058 51.9003 7.75229 51.9723 7.57917L54.0384 2.6117Z" fill="#FDB022"/>
</g>
</g>
<mask id="mask6_222_218" style="mask-type:luminance" maskUnits="userSpaceOnUse" x="66" y="1" width="21" height="21">
<path d="M86.5 1.00171H66.5V21.0017H86.5V1.00171Z" fill="white"/>
</mask>
<g mask="url(#mask6_222_218)">
<path d="M76.0384 2.6117C76.2092 2.20105 76.791 2.20105 76.9618 2.6117L79.0279 7.57917C79.0999 7.75229 79.2627 7.87058 79.4496 7.88556L84.8124 8.31549C85.2557 8.35104 85.4355 8.90429 85.0977 9.19362L81.0118 12.6936C80.8694 12.8156 80.8072 13.007 80.8507 13.1894L82.099 18.4226C82.2022 18.8552 81.7316 19.1971 81.352 18.9653L76.7607 16.1609C76.6007 16.0632 76.3995 16.0632 76.2395 16.1609L71.6482 18.9653C71.2686 19.1971 70.798 18.8552 70.9012 18.4226L72.1495 13.1894C72.193 13.007 72.1308 12.8156 71.9884 12.6936L67.9025 9.19362C67.5647 8.90429 67.7445 8.35104 68.1878 8.31549L73.5506 7.88556C73.7375 7.87058 73.9003 7.75229 73.9723 7.57917L76.0384 2.6117Z" fill="#F2F4F7"/>
<mask id="mask7_222_218" style="mask-type:luminance" maskUnits="userSpaceOnUse" x="66" y="1" width="21" height="21">
<path d="M86.5 1.00171H66.5V21.0017H86.5V1.00171Z" fill="white"/>
</mask>
<g mask="url(#mask7_222_218)">
<path d="M76.0384 2.6117C76.2092 2.20105 76.791 2.20105 76.9618 2.6117L79.0279 7.57917C79.0999 7.75229 79.2627 7.87058 79.4496 7.88556L84.8124 8.31549C85.2557 8.35104 85.4355 8.90429 85.0977 9.19362L81.0118 12.6936C80.8694 12.8156 80.8072 13.007 80.8507 13.1894L82.099 18.4226C82.2022 18.8552 81.7316 19.1971 81.352 18.9653L76.7607 16.1609C76.6007 16.0632 76.3995 16.0632 76.2395 16.1609L71.6482 18.9653C71.2686 19.1971 70.798 18.8552 70.9012 18.4226L72.1495 13.1894C72.193 13.007 72.1308 12.8156 71.9884 12.6936L67.9025 9.19362C67.5647 8.90429 67.7445 8.35104 68.1878 8.31549L73.5506 7.88556C73.7375 7.87058 73.9003 7.75229 73.9723 7.57917L76.0384 2.6117Z" fill="#FDB022"/>
</g>
</g>
<mask id="mask8_222_218" style="mask-type:luminance" maskUnits="userSpaceOnUse" x="88" y="1" width="21" height="21">
<path d="M108.5 1.00171H88.5V21.0017H108.5V1.00171Z" fill="white"/>
</mask>
<g mask="url(#mask8_222_218)">
<path d="M98.0384 2.6117C98.2092 2.20105 98.791 2.20105 98.9618 2.6117L101.028 7.57917C101.1 7.75229 101.263 7.87058 101.449 7.88556L106.812 8.31549C107.256 8.35104 107.435 8.90429 107.098 9.19362L103.012 12.6936C102.869 12.8156 102.807 13.007 102.851 13.1894L104.099 18.4226C104.202 18.8552 103.731 19.1971 103.352 18.9653L98.7607 16.1609C98.6007 16.0632 98.3995 16.0632 98.2395 16.1609L93.6482 18.9653C93.2686 19.1971 92.798 18.8552 92.9012 18.4226L94.1495 13.1894C94.193 13.007 94.1308 12.8156 93.9884 12.6936L89.9025 9.19362C89.5647 8.90429 89.7445 8.35104 90.1878 8.31549L95.5506 7.88556C95.7375 7.87058 95.9003 7.75229 95.9723 7.57917L98.0384 2.6117Z" fill="#F2F4F7"/>
<mask id="mask9_222_218" style="mask-type:luminance" maskUnits="userSpaceOnUse" x="88" y="1" width="21" height="21">
<path d="M108.5 1.00171H88.5V21.0017H108.5V1.00171Z" fill="white"/>
</mask>
<g mask="url(#mask9_222_218)">
<path d="M98.0384 2.6117C98.2092 2.20105 98.791 2.20105 98.9618 2.6117L101.028 7.57917C101.1 7.75229 101.263 7.87058 101.449 7.88556L106.812 8.31549C107.256 8.35104 107.435 8.90429 107.098 9.19362L103.012 12.6936C102.869 12.8156 102.807 13.007 102.851 13.1894L104.099 18.4226C104.202 18.8552 103.731 19.1971 103.352 18.9653L98.7607 16.1609C98.6007 16.0632 98.3995 16.0632 98.2395 16.1609L93.6482 18.9653C93.2686 19.1971 92.798 18.8552 92.9012 18.4226L94.1495 13.1894C94.193 13.007 94.1308 12.8156 93.9884 12.6936L89.9025 9.19362C89.5647 8.90429 89.7445 8.35104 90.1878 8.31549L95.5506 7.88556C95.7375 7.87058 95.9003 7.75229 95.9723 7.57917L98.0384 2.6117Z" fill="#FDB022"/>
</g>
</g>
</svg>
