<svg width="44" height="45" viewBox="0 0 44 45" fill="none" xmlns="http://www.w3.org/2000/svg">
<g clipPath="url(#clip0_222_576)">
<g clipPath="url(#clip1_222_576)">
<g clipPath="url(#clip2_222_576)">
<g filter="url(#filter0_d_222_576)">
<path d="M34 1.39014H10C5.58172 1.39014 2 4.97186 2 9.39014V33.3901C2 37.8084 5.58172 41.3901 10 41.3901H34C38.4183 41.3901 42 37.8084 42 33.3901V9.39014C42 4.97186 38.4183 1.39014 34 1.39014Z" fill="url(#paint0_linear_222_576)"/>
<mask id="mask0_222_576" style="mask-type:luminance" maskUnits="userSpaceOnUse" x="12" y="11" width="20" height="21">
<path d="M32 11.3901H12V31.3901H32V11.3901Z" fill="white"/>
</mask>
<g mask="url(#mask0_222_576)">
<g filter="url(#filter1_dd_222_576)">
<path d="M21.9998 28.4501C22.8844 29.2418 24.0526 29.7232 25.3332 29.7232C28.0946 29.7232 30.3332 27.4847 30.3332 24.7232C30.3332 22.4175 28.7724 20.4762 26.6497 19.8984M17.35 19.8984C15.2273 20.4762 13.6665 22.4174 13.6665 24.7232C13.6665 27.4846 15.9051 29.7232 18.6665 29.7232C21.4279 29.7232 23.6665 27.4846 23.6665 24.7232C23.6665 24.0728 23.5423 23.4514 23.3163 22.8814M26.9998 18.0566C26.9998 20.818 24.7612 23.0566 21.9998 23.0566C19.2384 23.0566 16.9998 20.818 16.9998 18.0566C16.9998 15.2951 19.2384 13.0566 21.9998 13.0566C24.7612 13.0566 26.9998 15.2951 26.9998 18.0566Z" stroke="white" strokeWidth="1.66667" strokeLinecap="round" strokeLinejoin="round"/>
</g>
</g>
<path d="M34 1.89014H10C5.85786 1.89014 2.5 5.248 2.5 9.39014V33.3901C2.5 37.5323 5.85786 40.8901 10 40.8901H34C38.1421 40.8901 41.5 37.5323 41.5 33.3901V9.39014C41.5 5.248 38.1421 1.89014 34 1.89014Z" stroke="url(#paint1_linear_222_576)"/>
</g>
</g>
</g>
</g>
<defs>
<filter id="filter0_d_222_576" x="0" y="0.390137" width="44" height="44" filterUnits="userSpaceOnUse" colorInterpolationFilters="sRGB">
<feFlood floodOpacity="0" result="BackgroundImageFix"/>
<feColorMatrix in="SourceAlpha" type="matrix" values="0 0 0 0 0 0 0 0 0 0 0 0 0 0 0 0 0 0 127 0" result="hardAlpha"/>
<feOffset dy="1"/>
<feGaussianBlur stdDeviation="1"/>
<feColorMatrix type="matrix" values="0 0 0 0 0.0627451 0 0 0 0 0.0941176 0 0 0 0 0.156863 0 0 0 0.05 0"/>
<feBlend mode="normal" in2="BackgroundImageFix" result="effect1_dropShadow_222_576"/>
<feBlend mode="normal" in="SourceGraphic" in2="effect1_dropShadow_222_576" result="shape"/>
</filter>
<filter id="filter1_dd_222_576" x="4.83301" y="8.22314" width="34.3335" height="34.3335" filterUnits="userSpaceOnUse" colorInterpolationFilters="sRGB">
<feFlood floodOpacity="0" result="BackgroundImageFix"/>
<feColorMatrix in="SourceAlpha" type="matrix" values="0 0 0 0 0 0 0 0 0 0 0 0 0 0 0 0 0 0 127 0" result="hardAlpha"/>
<feOffset dy="2"/>
<feGaussianBlur stdDeviation="2"/>
<feColorMatrix type="matrix" values="0 0 0 0 0.0627451 0 0 0 0 0.0941176 0 0 0 0 0.156863 0 0 0 0.06 0"/>
<feBlend mode="normal" in2="BackgroundImageFix" result="effect1_dropShadow_222_576"/>
<feColorMatrix in="SourceAlpha" type="matrix" values="0 0 0 0 0 0 0 0 0 0 0 0 0 0 0 0 0 0 127 0" result="hardAlpha"/>
<feOffset dy="4"/>
<feGaussianBlur stdDeviation="4"/>
<feColorMatrix type="matrix" values="0 0 0 0 0.0627451 0 0 0 0 0.0941176 0 0 0 0 0.156863 0 0 0 0.1 0"/>
<feBlend mode="normal" in2="effect1_dropShadow_222_576" result="effect2_dropShadow_222_576"/>
<feBlend mode="normal" in="SourceGraphic" in2="effect2_dropShadow_222_576" result="shape"/>
</filter>
<linearGradient id="paint0_linear_222_576" x1="1.99938" y1="41.3899" x2="41.9995" y2="1.38965" gradientUnits="userSpaceOnUse">
<stop stop-color="#101828"/>
<stop offset="1" stop-color="#475467"/>
</linearGradient>
<linearGradient id="paint1_linear_222_576" x1="2" y1="3.0792" x2="49.6677" y2="21.0393" gradientUnits="userSpaceOnUse">
<stop stop-color="white"/>
<stop offset="1" stop-color="white" stop-opacity="0.2"/>
</linearGradient>
<clipPath id="clip0_222_576">
<rect width="44" height="44" fill="white" transform="translate(0 0.390137)"/>
</clipPath>
<clipPath id="clip1_222_576">
<rect width="44" height="44" fill="white" transform="translate(0 0.390137)"/>
</clipPath>
<clipPath id="clip2_222_576">
<rect width="44" height="44" fill="white" transform="translate(0 0.390137)"/>
</clipPath>
</defs>
</svg>
