<svg width="126" height="28" viewBox="0 0 126 28" fill="none" xmlns="http://www.w3.org/2000/svg">
<path d="M81.171 19.3964C78.5746 19.3964 77.251 17.2582 77.251 14.6109C77.251 11.9636 78.5746 9.97818 81.171 9.97818C83.8183 9.97818 85.091 12.1164 85.091 14.6109C85.091 17.3091 83.7674 19.3964 81.171 19.3964ZM55.7674 9.97818C57.2946 9.97818 57.9055 10.8436 57.9055 11.6073C57.9055 13.4909 56.0219 14.2545 52.051 14.4073C52.1019 12.1164 53.3746 9.97818 55.7674 9.97818ZM38.9164 19.3964C36.4728 19.3964 35.4546 17.4109 35.4546 14.6109C35.4546 11.8618 36.5237 9.97818 38.9164 9.97818C41.411 9.97818 42.5819 11.9636 42.5819 14.6109C42.5819 17.4109 41.3601 19.3964 38.9164 19.3964ZM18.1455 7.22909H14.3274L20.691 21.84C19.4692 24.5382 18.8074 25.2 17.9928 25.2C17.1274 25.2 16.2619 24.4873 15.651 23.8764L13.971 26.1164C15.1419 27.3382 16.6692 28 18.2983 28C20.3346 28 21.8619 26.8291 22.7274 24.7418L30.0583 7.22909H26.291L22.4728 17.6655L18.1455 7.22909ZM119.76 9.97818C121.644 9.97818 122 11.2509 122 14.2545V22.1455H125.309V12.1673C125.309 8.60364 122.866 7.02545 120.575 7.02545C118.538 7.02545 116.706 8.29818 115.687 10.5891C115.127 8.34909 113.244 7.02545 111.055 7.02545C109.171 7.02545 107.287 8.24727 106.218 10.4873V7.22909H102.909V22.0945H106.218V15.7309C106.218 12.5236 107.898 9.92727 110.189 9.92727C112.073 9.92727 112.429 11.2 112.429 14.2036V22.0945H115.738V15.7309C115.789 12.5236 117.469 9.97818 119.76 9.97818ZM93.1855 7.22909H91.6074V22.0945H94.9164V16.3927C94.9164 12.7782 96.4946 10.3345 98.8874 10.3345C99.4983 10.3345 100.007 10.3345 100.567 10.5891L101.076 7.07636C100.669 7.02545 100.262 6.97455 99.9055 6.97455C97.5637 6.97455 95.8837 8.55273 94.9164 10.64V7.17818L93.1855 7.22909ZM81.171 7.02545C76.7928 7.02545 73.7892 10.3855 73.7892 14.6109C73.7892 18.9891 76.7928 22.2982 81.171 22.2982C85.6001 22.2982 88.6037 18.9382 88.6037 14.6109C88.6037 10.3345 85.5492 7.02545 81.171 7.02545ZM55.971 19.3964C54.2401 19.3964 52.9674 18.5309 52.4074 16.7491C56.7855 16.5455 61.1128 15.4764 61.1128 11.6073C61.1128 9.36727 58.9237 7.07636 55.7674 7.07636C51.491 7.07636 48.6401 10.5382 48.6401 14.6618C48.6401 18.9382 51.491 22.3491 55.7164 22.3491C58.6692 22.3491 60.5528 21.1782 62.0292 19.4473L60.4001 17.2582C58.6692 18.9382 57.6001 19.3964 55.971 19.3964ZM39.5783 7.02545C37.8983 7.02545 36.2183 7.99273 35.5564 9.52V7.22909H32.2474V27.8982H35.5564V20.5164C36.2692 21.5855 37.8474 22.2982 39.3237 22.2982C43.7528 22.2982 46.0946 19.04 46.0946 14.6109C46.0437 10.2327 43.7528 7.02545 39.5783 7.02545ZM16.3128 1.32364H0.632812V4.53091H6.7419V22.0945H10.2037V4.53091H16.2619L16.3128 1.32364ZM65.6946 7.22909H63.7092V10.1818H65.6946V22.0436H69.0037V10.2327H72.211V7.28H69.0037V4.93818C69.0037 3.46182 69.6146 2.95273 70.9892 2.95273C71.4983 2.95273 71.9565 3.10545 72.6183 3.30909L73.3819 0.509091C72.771 0.152727 71.5492 0 70.7855 0C67.6292 0 65.7455 1.88364 65.7455 5.19273L65.6946 7.22909Z" fill="#667085"/>
</svg>
