<svg width="111" height="40" viewBox="0 0 111 40" fill="none" xmlns="http://www.w3.org/2000/svg">
<g clip-path="url(#clip0_1_55729)">
<path d="M33.5651 31.9368L26.4151 19.91L33.5651 7.8832L37.0119 19.91L33.5651 31.9368ZM17.6519 30.7632L8.66828 21.8532H22.9683L30.1183 33.88L17.6519 30.7632ZM17.6519 9.02L30.0819 5.9032L22.9319 17.93H8.63188L17.6519 9.02ZM35.9119 0L19.6683 4.2168L17.2483 8.36L12.3719 8.3232L0.455078 19.91L12.3719 31.4968L17.2483 31.46L19.6683 35.6032L35.9119 39.8568L40.2751 24.0532L37.8183 19.9468L40.2751 15.84L35.9119 0ZM72.7983 11.6968C70.6351 11.6968 69.1683 12.6132 68.0683 14.3H67.9951V12.1368H64.1819V28.05H68.0683V19.03C68.0683 16.8668 69.4251 15.3632 71.2951 15.3632C73.0551 15.3632 74.3751 16.4268 74.3751 18.2968V28.0868H78.2619V17.6732C78.2983 14.19 76.0983 11.6968 72.7983 11.6968ZM58.2783 21.34C58.2783 23.4668 57.0683 24.9332 55.0883 24.9332C53.2919 24.9332 52.1551 23.9068 52.1551 22.0368V12.1368H48.2683V22.77C48.2683 26.2532 50.2483 28.5268 53.8051 28.5268C56.0419 28.5268 57.2883 27.6832 58.3519 26.2168H58.4619V28.0868H62.2019V12.1368H58.3151V21.34H58.2783ZM80.3519 12.1368H84.2383V28.05H80.3519V12.1368ZM80.3519 7.1868H84.2383V10.3768H80.3519V7.1868ZM106.275 12.1368L103.965 19.3232C103.452 20.79 103.048 22.8068 103.048 22.8068H102.938C102.938 22.8068 102.425 20.79 101.912 19.3232L99.3083 12.1368H95.1283L99.4183 23.4668C100.335 25.8868 100.628 26.9132 100.628 27.7932C100.628 29.1132 99.9319 29.9568 98.2819 29.9568H96.7783V33.2932H99.2719C102.498 33.2932 103.635 32.01 104.845 28.49L110.455 12.1732H106.275V12.1368ZM91.4983 23.3932V14.96H93.9919V12.1732H91.4983V7.1868H87.6119V12.1368H85.4119V14.9232H87.6119V24.2732C87.6119 27.28 89.8851 28.0868 91.9383 28.0868C93.6251 28.0868 94.0651 28.0132 94.0651 28.0132V24.9332H93.0751C92.1583 24.97 91.4983 24.5668 91.4983 23.3932Z" fill="#667085"/>
</g>
<defs>
<clipPath id="clip0_1_55729">
<rect width="110" height="40" fill="white" transform="translate(0.455078)"/>
</clipPath>
</defs>
</svg>
