<svg width="87" height="28" viewBox="0 0 87 28" fill="none" xmlns="http://www.w3.org/2000/svg">
<path d="M3.45724 28L0.455078 0H5.93729L7.50363 17.667L9.06997 0H14.2911L15.7922 17.667L17.2933 0H22.8408L19.7734 28H13.0511L11.6479 14.5052L10.31 28H3.45724Z" fill="#667085"/>
<path d="M24.4316 0H33.0466C34.4172 0 35.4722 0.315095 36.2119 0.945281C36.9733 1.55374 37.4846 2.42297 37.7456 3.55296C38.0066 4.66122 38.1372 6.08458 38.1372 7.82304C38.1372 9.4094 37.9305 10.648 37.5172 11.539C37.1038 12.43 36.3859 13.0492 35.3635 13.3969C36.2119 13.5708 36.821 13.9945 37.1909 14.6682C37.5824 15.3418 37.7782 16.2545 37.7782 17.4063L37.713 28H32.2308V17.0477C32.2308 16.2654 32.0785 15.7656 31.7739 15.5483C31.4694 15.331 30.9146 15.2223 30.1096 15.2223V28H24.4316V0ZM31.4802 10.3656C32.2634 10.3656 32.655 9.518 32.655 7.82304C32.655 7.0842 32.6223 6.53006 32.5571 6.16065C32.4919 5.79122 32.3722 5.54132 32.1982 5.41094C32.0241 5.25882 31.7739 5.18276 31.4476 5.18276H30.1423V10.3656H31.4802Z" fill="#667085"/>
<path d="M39.7227 28V0H45.1395V28H39.7227Z" fill="#667085"/>
<path d="M49.7923 28V5.37834H46.4639V0H58.7336V5.37834H55.405V28H49.7923Z" fill="#667085"/>
<path d="M60.3145 28V0H71.54V5.41094H66.0251V10.8544H71.3115V16.135H66.0251V22.5564H71.8989V28H60.3145Z" fill="#667085"/>
<path d="M73.2734 0H81.8881C83.2585 0 84.3142 0.315095 85.0534 0.945281C85.8151 1.55374 86.3261 2.42297 86.5872 3.55296C86.8483 4.66122 86.9789 6.08458 86.9789 7.82304C86.9789 9.4094 86.7723 10.648 86.359 11.539C85.9457 12.43 85.2281 13.0492 84.2053 13.3969C85.0534 13.5708 85.663 13.9945 86.033 14.6682C86.4238 15.3418 86.6201 16.2545 86.6201 17.4063L86.5544 28H81.0728V17.0477C81.0728 16.2654 80.9206 15.7656 80.6155 15.5483C80.3111 15.331 79.7561 15.2223 78.9514 15.2223V28H73.2734V0ZM80.3223 10.3656C81.1048 10.3656 81.4965 9.518 81.4965 7.82304C81.4965 7.0842 81.4644 6.53006 81.3988 6.16065C81.3339 5.79122 81.2138 5.54132 81.04 5.41094C80.8661 5.25882 80.6155 5.18276 80.2895 5.18276H78.984V10.3656H80.3223Z" fill="#667085"/>
</svg>
