<svg width="121" height="28" viewBox="0 0 121 28" fill="none" xmlns="http://www.w3.org/2000/svg">
<path d="M47.1745 8.79639C44.7069 8.79639 42.6969 10.0302 41.7417 12.2591C41.284 13.2939 41.1049 14.5675 41.085 16.0402V16.2193C41.085 21.7914 43.9108 23.7019 47.5924 23.7019C49.6223 23.7218 51.5526 22.8859 52.9059 21.3934C52.9457 21.3536 52.9457 21.274 52.886 21.2342L51.1546 19.6621C51.1148 19.6223 51.0551 19.6223 50.9954 19.6621C49.9805 20.6571 49.0651 21.075 47.6322 21.075C45.2243 21.075 43.9904 19.5825 43.9904 17.075H53.1248C53.1845 17.075 53.2243 17.0352 53.2243 16.9755L53.2442 14.8063C53.2641 11.2442 51.0352 8.79639 47.1745 8.79639ZM50.4581 14.6471H44.0501V14.4083C44.0899 13.7317 44.1297 13.4133 44.4083 12.8959C44.8661 12.0601 45.9009 11.5029 47.2541 11.5029C48.6073 11.5029 49.6223 12.0601 50.0601 12.8959C50.3387 13.3934 50.4183 13.7317 50.4581 14.4083V14.6471Z" fill="#667085"/>
<path d="M75.7517 8.79639C73.284 8.79639 71.274 10.0302 70.3188 12.2591C69.8611 13.2939 69.682 14.5675 69.6621 16.0402V16.2193C69.6621 21.7914 72.488 23.7019 76.1696 23.7019C78.1994 23.7218 80.1298 22.8859 81.483 21.3934C81.5228 21.3536 81.5228 21.274 81.4631 21.2342L79.7318 19.6621C79.692 19.6223 79.6323 19.6223 79.5726 19.6621C78.5576 20.6571 77.6422 21.075 76.2094 21.075C73.8014 21.075 72.5676 19.5825 72.5676 17.075H81.7019C81.7616 17.075 81.8014 17.0352 81.8014 16.9755L81.8213 14.8063C81.8611 11.2442 79.6124 8.79639 75.7517 8.79639ZM79.0551 14.6471H72.6472V14.4083C72.687 13.7317 72.7268 13.4133 73.0054 12.8959C73.4631 12.0601 74.4979 11.5029 75.8512 11.5029C77.2044 11.5029 78.2193 12.0601 78.6571 12.8959C78.9357 13.3934 79.0153 13.7317 79.0551 14.4083V14.6471Z" fill="#667085"/>
<path d="M28.249 9.07496V11.5028C28.249 11.5625 28.3087 11.6023 28.3485 11.6222H35.0351L27.8908 23.3635C27.851 23.4232 27.8709 23.4829 27.9306 23.5028C27.9505 23.5227 27.9704 23.5227 27.9903 23.5227H39.7316C39.7913 23.5227 39.8311 23.463 39.8311 23.4033V20.9755C39.8311 20.9158 39.7714 20.8561 39.7316 20.8561H32.7664L39.8709 9.11477C39.9107 9.05507 39.8908 8.99536 39.8311 8.97546C39.8112 8.95556 39.7913 8.95557 39.7714 8.95557H28.3485C28.2888 8.95557 28.249 9.01526 28.249 9.07496Z" fill="#667085"/>
<path d="M104.846 5.21436H102.259C102.199 5.21436 102.159 5.27406 102.159 5.31386V8.95565H100.249C100.189 8.95565 100.149 9.01535 100.149 9.07505V11.5029C100.149 11.5626 100.209 11.6024 100.249 11.6223H102.159V19.2243C102.159 22.3885 104.468 23.6223 106.975 23.6223C107.234 23.6223 107.393 23.6223 107.532 23.6024C107.592 23.6024 107.632 23.5427 107.632 23.483V20.9955C107.632 20.9358 107.572 20.896 107.513 20.896C107.373 20.9159 107.234 20.9159 107.075 20.896C105.662 20.8363 104.945 20.08 104.945 18.4084V11.6024H107.791C107.851 11.6024 107.911 11.5427 107.911 11.5029V9.07505C107.911 9.01535 107.851 8.95565 107.791 8.95565H104.945V5.33376C104.945 5.25416 104.906 5.21436 104.846 5.21436Z" fill="#667085"/>
<path d="M118.796 16.1784C117.841 15.5018 116.428 15.1436 114.657 14.8451C112.329 14.4471 112.03 13.9893 112.05 13.0739C112.05 12.5565 112.329 12.0789 112.806 11.8401C113.523 11.4421 114.299 11.4222 115.015 11.5018C115.851 11.5814 116.906 11.8998 117.642 12.6958C117.682 12.7356 117.742 12.7555 117.781 12.7157C117.781 12.7157 117.781 12.7157 117.801 12.6958L119.552 11.1038C119.592 11.064 119.612 11.0043 119.572 10.9645C119.254 10.5267 118.856 10.1685 118.378 9.88984C117.841 9.55154 117.244 9.27293 116.647 9.09382C115.97 8.91472 115.274 8.81522 114.557 8.81522C113.622 8.79532 112.687 8.97442 111.811 9.31273C111.214 9.57144 110.657 9.94955 110.219 10.4471C109.781 10.9446 109.503 11.5416 109.363 12.1784C109.204 12.9346 109.224 13.7107 109.443 14.4471C109.602 14.9446 109.881 15.4023 110.239 15.8003C111.274 16.9346 112.906 17.253 114.498 17.5316C115.572 17.7306 117.523 17.8102 117.483 19.3028C117.443 20.7555 115.692 21.2132 114.498 21.2132C113.125 21.2132 111.95 20.7157 110.995 19.7605C110.955 19.7207 110.896 19.7207 110.836 19.7406L109.125 21.2928C109.085 21.3326 109.065 21.3923 109.105 21.452C110.358 22.865 112.508 23.7207 114.677 23.7207C117.463 23.7207 120.11 22.3675 120.269 19.4819C120.348 17.9495 119.851 16.9147 118.796 16.1784Z" fill="#667085"/>
<path d="M96.4676 6.22888C97.5667 6.22888 98.4576 5.3379 98.4576 4.23883C98.4576 3.13975 97.5667 2.24878 96.4676 2.24878C95.3685 2.24878 94.4775 3.13975 94.4775 4.23883C94.4775 5.3379 95.3685 6.22888 96.4676 6.22888Z" fill="#667085"/>
<path d="M88.3481 8.95538V6.94543C88.4277 5.45289 89.4426 4.87577 90.6167 4.85587C91.2137 4.83597 91.8307 4.89568 92.4277 4.95538C92.4874 4.97528 92.5471 4.93548 92.5471 4.87578C92.5471 4.85588 92.5471 4.85587 92.5471 4.85587V2.44791C92.5471 2.38821 92.5073 2.34841 92.4476 2.34841C91.8506 2.22901 91.2535 2.18921 90.6565 2.18921H90.3978C87.552 2.18921 85.5421 3.78125 85.5421 6.70662V8.97527H83.3729C83.3132 8.97527 83.2734 9.01507 83.2734 9.07478C83.2734 9.51259 83.2734 11.0847 83.2734 11.5026C83.2734 11.5623 83.3331 11.6021 83.3729 11.622H85.5421V23.423C85.5421 23.4827 85.6018 23.5424 85.6416 23.5424H88.2287C88.2884 23.5424 88.3282 23.4827 88.3282 23.423V11.622H95.0545V23.423C95.0545 23.4827 95.1142 23.5424 95.154 23.5424H97.7411C97.8008 23.5424 97.8406 23.4827 97.8406 23.423C97.8406 22.1693 97.8406 10.3285 97.8406 9.07478C97.8406 9.01507 97.7809 8.97528 97.7411 8.95538H88.3481Z" fill="#667085"/>
<path d="M65.6816 10.0891C64.7662 9.23335 63.5523 8.77563 61.9602 8.77563C60.8657 8.77563 59.9105 8.93484 58.9552 9.57165C58.7562 9.71096 58.5572 9.85026 58.398 10.0095C58.3582 10.0493 58.3184 10.0891 58.2587 10.1289V9.07414C58.2587 9.01444 58.199 8.97464 58.1592 8.95474H55.5722C55.5125 8.95474 55.4727 9.01444 55.4727 9.07414V23.4025C55.4727 23.4622 55.5324 23.5219 55.5722 23.5219H58.1592C58.2189 23.5219 58.2587 23.4622 58.2587 23.4025V13.8901C58.2587 13.1338 58.8159 12.4572 59.4329 12.0791C60.1891 11.6214 61.4428 11.5617 62.2985 11.701C63.6518 11.9199 64.607 13.0343 64.607 14.4473V23.4025C64.607 23.4622 64.6667 23.5219 64.7065 23.5219H67.2936C67.3533 23.5219 67.3931 23.4622 67.3931 23.4025V14.4672C67.4329 12.8751 66.995 11.3229 65.6816 10.0891Z" fill="#667085"/>
<path d="M19.2937 4.61691V7.58209L0.885742 17.194V14.2488L8.20913 10.408L0.885742 8.57711V5.89055L11.6917 8.61692L15.8509 6.44776L0.885742 2.68657V0L19.2937 4.61691ZM0.885742 23.3831L19.2937 28V25.3333L4.34843 21.5721L8.50763 19.403L19.3136 22.1095V19.4229L11.9902 17.592L19.3136 13.7512V10.806L0.905643 20.4179V23.3831H0.885742Z" fill="#667085"/>
</svg>
